<svg width="128" height="61" viewBox="0 0 128 61" fill="none" xmlns="http://www.w3.org/2000/svg">
<path d="M70.4026 7.36102H80.0002V9.33818H72.8125V13.0134H79.2948L79.5964 14.9905H72.8125V18.9631H80.1995V20.9403H70.4026V7.36102Z" fill="#231F20"/>
<path d="M87.9667 15.6478L84.2141 20.9403H81.563L86.6031 13.9107L81.9852 7.50187L84.5944 7.2019L88.1686 12.1943L91.5199 7.36102H94.15L89.5741 13.8898L94.6719 20.7811L92.0417 21.0994L87.9667 15.6478Z" fill="#231F20"/>
<path d="M104.909 11.8553C104.909 10.1989 103.706 9.33818 102.02 9.33818H98.6868V14.3906H102.02C103.706 14.3906 104.909 13.5116 104.909 11.8553ZM107.38 11.8553C107.38 14.5315 105.492 16.3678 102.119 16.3678H98.6868V20.9403H96.2769V7.36102H102.119C105.492 7.36102 107.38 9.19733 107.38 11.8553Z" fill="#231F20"/>
<path d="M111.09 14.1506C111.09 17.1059 112.876 19.1639 115.907 19.1639C118.939 19.1639 120.727 17.1059 120.727 14.1506C120.727 11.1953 118.96 9.13731 115.907 9.13731C112.855 9.13731 111.09 11.1927 111.09 14.1506ZM108.641 14.1506C108.641 10.2772 111.289 7.16016 115.928 7.16016C120.567 7.16016 123.195 10.2746 123.195 14.1506C123.195 18.0267 120.546 21.1411 115.928 21.1411C111.31 21.1411 108.641 18.0449 108.641 14.1506" fill="#231F20"/>
<path d="M76.6987 38.0825C72.503 38.0825 69.5713 35.3854 69.5713 31.092C69.5713 26.7986 72.503 24.1042 76.7984 24.1042C78.7861 24.1042 80.1523 24.5424 81.3743 25.2414L80.9731 27.3386C79.5675 26.3996 78.3036 26.0813 76.856 26.0813C73.9846 26.0813 72.0389 27.9176 72.0389 31.0947C72.0389 34.2717 73.9846 36.108 76.7564 36.108C78.2013 36.108 79.8874 35.7298 81.2746 34.7907V36.9479C80.05 37.626 78.6838 38.0851 76.6961 38.0851" fill="#231F20"/>
<path d="M83.7239 37.8843V24.4459L86.1338 24.1459V37.8843H83.7239Z" fill="#231F20"/>
<path d="M92.4772 26.2822H87.959V24.3051H99.4027L99.1011 26.2822H94.8845V37.8843H92.4772V26.2822Z" fill="#231F20"/>
<path d="M107.39 37.8843H104.983V33.4109L99.9036 24.4459L102.311 24.1459L106.247 31.1547L110.06 24.305H112.611L107.39 33.45V37.8843Z" fill="#231F20"/>
<path d="M80.2388 48.0387C80.2388 45.0834 78.4321 43.2262 75.44 43.2262H72.8099V52.8512H75.44C78.4321 52.8512 80.2388 50.994 80.2388 48.0387M70.4026 41.2491H75.4427C80.0212 41.2491 82.7117 44.1653 82.7117 48.0387C82.7117 51.9122 80.0212 54.8283 75.4427 54.8283H70.4026V41.2491V41.2491Z" fill="#231F20"/>
<path d="M86.7815 41.0874V49.4133C86.7815 51.6487 87.8461 53.0468 90.3557 53.0468C92.8652 53.0468 93.9089 51.6487 93.9089 49.4133V41.3847L96.3162 41.0848V49.8724C96.3162 52.6086 94.4884 55.024 90.3531 55.024C86.2177 55.024 84.3716 52.5069 84.3716 49.8724V41.3847L86.7815 41.0848V41.0874Z" fill="#231F20"/>
<path d="M100.533 52.8512H104.207C105.854 52.8512 106.816 52.3504 106.816 50.8532C106.816 49.356 105.854 48.8369 104.207 48.8369H100.533V52.8512V52.8512ZM106.415 45.1043C106.415 43.6071 105.35 43.2263 103.703 43.2263H100.53V46.9615H103.703C105.35 46.9615 106.415 46.6224 106.415 45.1043ZM108.864 44.8852C108.864 46.1842 108.243 47.3423 106.837 47.8014C108.544 48.1613 109.265 49.4785 109.265 50.9966C109.265 53.6728 107.579 54.8309 104.306 54.8309H98.123V41.2517H103.806C107.078 41.2517 108.864 42.389 108.864 44.8852Z" fill="#231F20"/>
<path d="M119.162 49.8959L116.673 43.5445L114.163 49.8959H119.162ZM119.943 51.8731H113.379L112.215 54.8284H109.727L115.288 41.2909L118.1 40.9909L123.58 54.6693L121.17 54.9901L119.946 51.8757L119.943 51.8731Z" fill="#231F20"/>
<path d="M124.941 41.3874V54.8284H127.351V41.0874L124.941 41.3874Z" fill="#231F20"/>
<path d="M46.2039 31.8668L45.53 32.5215C45.3123 32.7328 45.2651 33.0223 45.4041 33.2936L45.8341 34.1256C45.9889 34.4256 46.3429 34.6551 46.7572 34.723H46.7598C46.8542 34.7386 46.9486 34.7438 47.043 34.7412C47.0745 34.7412 47.106 34.736 47.1374 34.736C47.2004 34.7308 47.2607 34.7229 47.3184 34.7073C47.3498 34.6995 47.3813 34.6943 47.4101 34.6838C47.4678 34.6682 47.5229 34.6447 47.5754 34.6212C47.599 34.6108 47.6226 34.6004 47.6462 34.5873C47.717 34.5482 47.7851 34.5012 47.8402 34.4491L48.5141 33.7944C48.7318 33.5831 48.779 33.2936 48.64 33.0223L48.21 32.1902C48.0526 31.8876 47.696 31.6581 47.279 31.5903H47.2764C47.1977 31.5772 47.1191 31.572 47.043 31.572C46.7126 31.572 46.4058 31.679 46.2118 31.8668" fill="#231F20"/>
<path d="M46.8043 26.2927C46.8043 26.2927 46.7912 26.2927 46.7834 26.2927C46.3664 26.3579 46.0072 26.5848 45.8498 26.8848L45.4145 27.7143C45.2729 27.9855 45.3175 28.2725 45.5351 28.4863L46.2038 29.1463C46.4425 29.381 46.8489 29.4932 47.2685 29.4306H47.2711C47.6907 29.3654 48.0473 29.1384 48.2073 28.8359L48.6426 28.0064C48.7501 27.8056 48.7501 27.5917 48.6531 27.4065C48.6216 27.3439 48.577 27.2865 48.522 27.2343L47.8533 26.5744C47.7982 26.5196 47.73 26.4727 47.6592 26.4335C47.6409 26.4205 47.6173 26.4127 47.5963 26.4022C47.5412 26.3735 47.4835 26.3501 47.4206 26.3318C47.397 26.324 47.3708 26.3188 47.3445 26.3136C47.2816 26.2979 47.216 26.2875 47.1479 26.2823C47.1216 26.2823 47.0954 26.277 47.0666 26.277C47.0456 26.277 47.0246 26.277 47.0036 26.277C46.9381 26.277 46.8725 26.2823 46.8043 26.2901" fill="#231F20"/>
<path d="M13.3882 26.2588C13.3646 26.2588 13.3436 26.2614 13.32 26.264C13.2466 26.2692 13.1784 26.2796 13.1102 26.2953C13.0866 26.3005 13.063 26.3057 13.042 26.3135C12.9765 26.3318 12.9162 26.3579 12.8585 26.384C12.8401 26.3918 12.8191 26.3996 12.8008 26.4101C12.7273 26.4492 12.6618 26.4961 12.6067 26.5509L11.9328 27.2056C11.7151 27.4169 11.6679 27.7064 11.8069 27.9777L12.2396 28.8098C12.2789 28.8854 12.3314 28.9558 12.3917 29.021C12.4153 29.0445 12.4441 29.0628 12.473 29.0863C12.5149 29.1254 12.5569 29.1645 12.6067 29.1958C12.6382 29.2167 12.6775 29.2297 12.7116 29.248C12.7641 29.2767 12.8139 29.3054 12.869 29.3288C12.9004 29.3419 12.9371 29.3471 12.9712 29.3549C13.0342 29.3758 13.0997 29.3967 13.1679 29.4071C13.5875 29.4749 13.9992 29.3654 14.2404 29.1306L14.9144 28.4759C15.132 28.262 15.1792 27.9751 15.0402 27.7038L14.6075 26.8717C14.4502 26.5692 14.0962 26.3396 13.6766 26.2718C13.6688 26.2718 13.6609 26.2718 13.653 26.2718C13.5848 26.2614 13.514 26.2562 13.4459 26.2562C13.4275 26.2562 13.4091 26.2562 13.3882 26.2562" fill="#231F20"/>
<path d="M13.1811 31.5642H13.1785C12.7616 31.6294 12.4023 31.8563 12.2423 32.1589L11.8044 32.9884C11.6628 33.257 11.7074 33.5466 11.925 33.7605L12.5937 34.4204C12.6488 34.4752 12.717 34.5195 12.7878 34.5612C12.8088 34.5717 12.8297 34.5821 12.8533 34.5925C12.9084 34.6186 12.9635 34.6421 13.0238 34.6604C13.05 34.6682 13.0789 34.676 13.1077 34.6838C13.168 34.6969 13.2309 34.7073 13.2939 34.7125C13.3227 34.7125 13.3542 34.7177 13.383 34.7204C13.467 34.723 13.5535 34.7204 13.64 34.7073C13.6453 34.7073 13.6558 34.7073 13.661 34.7073C14.0779 34.6421 14.4372 34.4152 14.5945 34.1152L15.0325 33.2857C15.1741 33.0171 15.1269 32.7275 14.9118 32.5137L14.2432 31.8563C14.0491 31.6633 13.7397 31.5538 13.404 31.5538C13.3306 31.5538 13.2545 31.559 13.1785 31.5694" fill="#231F20"/>
<path d="M45.2467 21.2559C45.0553 21.2663 44.856 21.3185 44.6724 21.4072C44.6724 21.4072 44.6698 21.4072 44.6672 21.4098C44.2896 21.6002 44.0195 21.9262 43.9618 22.2601L43.8045 23.1835C43.7546 23.4834 43.8884 23.7443 44.1585 23.8799L44.9976 24.2999C45.2965 24.4512 45.7319 24.4277 46.1016 24.2425C46.4792 24.0521 46.7493 23.726 46.807 23.3895L46.9643 22.4662C47.0142 22.1662 46.883 21.9054 46.6103 21.7697L45.7686 21.3472C45.6951 21.3107 45.6165 21.2872 45.5299 21.2715C45.5142 21.2689 45.4985 21.2689 45.4827 21.2663C45.4172 21.2559 45.3542 21.2507 45.2861 21.2507C45.2729 21.2507 45.2572 21.2507 45.2441 21.2507" fill="#231F20"/>
<path d="M21.9737 13.8429C21.9475 13.8429 21.9213 13.8481 21.8951 13.8533C21.8557 13.8611 21.819 13.8742 21.7849 13.8898C21.7613 13.8977 21.7377 13.9081 21.7168 13.9185C21.68 13.9394 21.646 13.9655 21.6145 13.9942C21.5988 14.0098 21.5804 14.0202 21.5647 14.0359C21.5201 14.0829 21.4807 14.1376 21.4493 14.2002L21.0271 15.0375C20.8724 15.3427 20.896 15.7626 21.0874 16.1409C21.2788 16.5139 21.6066 16.7799 21.9423 16.8373L22.8706 16.9938C23.1721 17.046 23.4344 16.9103 23.5707 16.6417L23.9929 15.8044C24.1476 15.5018 24.124 15.0819 23.9352 14.7063C23.7936 14.4245 23.5707 14.2028 23.3295 14.0855C23.2482 14.0463 23.1643 14.0202 23.0804 14.0046L22.1521 13.8481C22.118 13.8429 22.0865 13.8403 22.055 13.8403C22.0288 13.8403 22.0026 13.8403 21.9764 13.8429" fill="#231F20"/>
<path d="M27.4149 45.6025L26.5784 46.0303C26.2768 46.1868 26.0461 46.539 25.9753 46.9511C25.9071 47.3684 26.0146 47.7779 26.2532 48.0205L26.9114 48.6909C26.9612 48.7404 27.0137 48.7796 27.0714 48.8109C27.0792 48.8161 27.0871 48.8213 27.095 48.8239C27.1527 48.8552 27.213 48.8761 27.2733 48.8839C27.2759 48.8839 27.2785 48.8839 27.2838 48.8839C27.3389 48.8917 27.3965 48.8891 27.4542 48.8839C27.4674 48.8839 27.4831 48.8813 27.4962 48.8787C27.5591 48.8656 27.6247 48.8474 27.685 48.8161L28.5215 48.3883C28.8257 48.2318 29.0565 47.8771 29.1246 47.4597C29.1902 47.045 29.0827 46.6407 28.8441 46.3981L28.1859 45.7277C28.0547 45.5921 27.8922 45.5243 27.7217 45.5243C27.6194 45.5243 27.5119 45.5504 27.4097 45.6025" fill="#231F20"/>
<path d="M18.3052 17.0068L17.3743 17.1425C17.0727 17.1868 16.8629 17.3929 16.8184 17.6928L16.6741 18.6162C16.661 18.6997 16.661 18.7883 16.6741 18.877C16.6768 18.8927 16.6846 18.9109 16.6873 18.9266C16.7004 18.9996 16.7161 19.0727 16.7423 19.1457C16.7502 19.1666 16.7659 19.1848 16.7738 19.2083C16.8053 19.2761 16.8367 19.3439 16.8761 19.4091C16.8944 19.4352 16.918 19.4587 16.9364 19.4848C16.9783 19.5396 17.0203 19.5969 17.0701 19.6491C17.3638 19.9413 17.7624 20.1004 18.1007 20.0508L19.0316 19.9152C19.3332 19.8708 19.5429 19.6648 19.5901 19.3648L19.7317 18.4414C19.7842 18.1049 19.6321 17.7111 19.3332 17.4111C19.3305 17.4111 19.3279 17.4059 19.3227 17.4033C19.2571 17.3381 19.1837 17.2807 19.1103 17.2311C19.0867 17.2129 19.0604 17.2024 19.0342 17.1868C18.9791 17.1555 18.9215 17.1216 18.8638 17.0981C18.8349 17.0851 18.8061 17.0772 18.7746 17.0668C18.7195 17.0486 18.6645 17.0329 18.6068 17.0225C18.5753 17.0173 18.5438 17.0146 18.5124 17.012C18.473 17.0094 18.4311 17.0042 18.3891 17.0042C18.3603 17.0042 18.3314 17.0042 18.3026 17.0094" fill="#231F20"/>
<path d="M17.062 41.3274C17.0096 41.377 16.9703 41.4343 16.9283 41.4891C16.9073 41.5152 16.8837 41.5387 16.8654 41.5648C16.826 41.6221 16.7998 41.6847 16.771 41.7447C16.7579 41.7734 16.7395 41.7969 16.729 41.8256C16.7002 41.8934 16.6871 41.9612 16.6739 42.0317C16.6687 42.0525 16.6608 42.0734 16.6556 42.0943C16.6425 42.1829 16.6425 42.2716 16.6556 42.3551L16.7919 43.2811C16.8365 43.581 17.0437 43.7897 17.3453 43.8341L18.2735 43.9775C18.3155 43.9853 18.3601 43.9879 18.4047 43.9879C18.6538 43.9906 18.9213 43.8888 19.152 43.7141C19.2071 43.6723 19.2595 43.628 19.3094 43.581C19.6083 43.2863 19.763 42.8924 19.7132 42.5586L19.5742 41.6326C19.5296 41.3326 19.3225 41.1239 19.0209 41.077L18.09 40.9335C18.0454 40.9283 17.9982 40.9231 17.9536 40.9231C17.6468 40.9231 17.3138 41.077 17.0568 41.3274" fill="#231F20"/>
<path d="M36.8736 44.3609L36.4514 45.1982C36.2967 45.5008 36.3203 45.9207 36.5091 46.2964C36.7005 46.672 37.0283 46.9406 37.3666 46.998L38.2949 47.1545C38.5938 47.2041 38.8587 47.071 38.995 46.8024L39.4172 45.9677C39.5719 45.6625 39.5483 45.24 39.3569 44.8644C39.1655 44.4914 38.8377 44.2227 38.502 44.1679L37.5737 44.0114C37.5318 44.0036 37.4898 44.001 37.4479 44.001C37.1987 44.001 36.989 44.1314 36.871 44.3635" fill="#231F20"/>
<path d="M42.3437 40.9518L41.4128 41.0874C41.1112 41.1317 40.9014 41.3378 40.8542 41.6378L40.7126 42.5611C40.6602 42.8976 40.8123 43.2889 41.1112 43.5888C41.161 43.641 41.2187 43.6827 41.2764 43.7245C41.3 43.7427 41.321 43.7662 41.3472 43.7819C41.4154 43.8262 41.4888 43.8627 41.5622 43.894C41.578 43.8992 41.5937 43.9123 41.6094 43.9175C41.6776 43.9462 41.7458 43.9592 41.8166 43.9723C41.8376 43.9775 41.8585 43.9853 41.8795 43.9879C41.9687 44.001 42.0578 44.001 42.1418 43.9879L43.0727 43.8523C43.3742 43.8079 43.584 43.6019 43.6286 43.3019L43.7728 42.3759C43.8253 42.0395 43.6706 41.6456 43.3742 41.3482C43.1173 41.0926 42.7842 40.9387 42.4748 40.9387C42.4302 40.9387 42.3883 40.9413 42.3437 40.9492" fill="#231F20"/>
<path d="M32.2426 45.7277L31.5791 46.3928C31.3379 46.6328 31.2277 47.0423 31.2933 47.4571C31.3012 47.5066 31.3195 47.5562 31.33 47.6031C31.3431 47.6527 31.351 47.7049 31.3693 47.7544C31.3877 47.7988 31.4113 47.8379 31.4323 47.8796C31.4559 47.9266 31.4742 47.9761 31.5005 48.0179C31.5267 48.057 31.5582 48.0883 31.5896 48.1248C31.6185 48.1613 31.6447 48.2004 31.6762 48.2317C31.7417 48.2943 31.8125 48.3439 31.8886 48.383L32.7225 48.8186C32.7854 48.8499 32.8483 48.8708 32.9113 48.8838C32.927 48.8865 32.9401 48.8865 32.9558 48.8891C33.0109 48.8969 33.0686 48.8995 33.1237 48.8917C33.1263 48.8917 33.1315 48.8917 33.1368 48.8917C33.1997 48.8812 33.26 48.8604 33.3151 48.8343C33.323 48.8291 33.3308 48.8265 33.3387 48.8212C33.3964 48.7899 33.4488 48.7508 33.4987 48.7013L34.1621 48.0361C34.2224 47.9761 34.2749 47.9057 34.3168 47.8274C34.3352 47.7909 34.3457 47.7518 34.3614 47.7127C34.3798 47.6657 34.4034 47.6214 34.4191 47.5692C34.4322 47.5197 34.4348 47.4649 34.4427 47.4127C34.4506 47.3684 34.461 47.3266 34.4637 47.2797C34.4663 47.2249 34.4584 47.1675 34.4558 47.1128C34.4532 47.0658 34.4558 47.0215 34.4479 46.9719C34.3824 46.5572 34.1542 46.1998 33.8527 46.0433L33.0188 45.6103C32.9139 45.5555 32.809 45.5269 32.7015 45.5269C32.5337 45.5269 32.3737 45.5973 32.2426 45.7277" fill="#231F20"/>
<path d="M22.8602 44.001L21.9292 44.1522C21.5936 44.207 21.2632 44.4705 21.0691 44.8461C21.0429 44.8982 21.0298 44.9478 21.0088 45C20.9931 45.0443 20.9695 45.0887 20.9564 45.133C20.9433 45.1878 20.938 45.2399 20.9301 45.2921C20.9223 45.3365 20.9118 45.3808 20.9092 45.4225C20.9039 45.4799 20.9144 45.5347 20.917 45.5921C20.917 45.626 20.917 45.6651 20.9223 45.699C20.938 45.7877 20.9642 45.8712 21.0036 45.9468L21.4205 46.7867C21.452 46.8493 21.4939 46.9041 21.5385 46.9537C21.5516 46.9693 21.5674 46.9771 21.5831 46.9928C21.6172 47.0241 21.6513 47.0502 21.6906 47.0736C21.709 47.0867 21.7326 47.0919 21.7535 47.1023C21.7903 47.118 21.8296 47.131 21.8689 47.1388C21.8952 47.1441 21.9214 47.1467 21.945 47.1493C22.0027 47.1545 22.0604 47.1571 22.1207 47.1467L23.049 46.9954C23.3872 46.9406 23.715 46.6746 23.9091 46.2989C24.0979 45.9259 24.1241 45.506 23.972 45.2034L23.5551 44.3661C23.4397 44.1314 23.2273 43.9984 22.9782 43.9984C22.9388 43.9984 22.8969 44.001 22.8549 44.0088" fill="#231F20"/>
<path d="M27.3233 12.1083C27.3233 12.1083 27.3102 12.1083 27.305 12.1083C27.2446 12.1187 27.1843 12.137 27.1293 12.1657C27.1188 12.1709 27.1109 12.1761 27.1057 12.1787C27.048 12.21 26.9955 12.2491 26.9457 12.2961L26.2823 12.9638C26.041 13.2038 25.9309 13.6133 25.9964 14.0307C26.062 14.4454 26.2901 14.8001 26.5917 14.9566L27.4256 15.3896C27.6931 15.5305 27.9868 15.4861 28.2018 15.2696L28.8652 14.6045C29.1065 14.3619 29.214 13.955 29.1511 13.5403C29.1406 13.4803 29.1222 13.4255 29.1065 13.3681C29.096 13.3264 29.0881 13.2821 29.0724 13.2429C29.0514 13.1829 29.0199 13.1334 28.9911 13.0786C28.9727 13.0447 28.9596 13.0108 28.9413 12.9795C28.915 12.9404 28.8836 12.9091 28.8521 12.8725C28.8233 12.836 28.797 12.7969 28.7656 12.7656C28.7 12.703 28.6292 12.6508 28.5532 12.6117L27.7193 12.1787C27.6563 12.1448 27.5934 12.1265 27.5305 12.1135C27.5147 12.1109 27.499 12.1083 27.4833 12.1083C27.4518 12.1031 27.4203 12.1005 27.3889 12.1005C27.3653 12.1005 27.3417 12.1005 27.3207 12.1057" fill="#231F20"/>
<path d="M44.9976 36.7131L44.1533 37.1279C43.8805 37.2635 43.7468 37.5217 43.794 37.8217L43.9461 38.7451C44.0012 39.0789 44.266 39.405 44.641 39.598C44.8246 39.6945 45.0265 39.7467 45.2205 39.7597C45.3176 39.7649 45.412 39.7597 45.5011 39.7441C45.5903 39.7284 45.6742 39.7023 45.7476 39.6658L46.592 39.2511C46.8673 39.1155 47.0011 38.8572 46.9512 38.5573L46.7992 37.6339C46.786 37.5504 46.7598 37.467 46.7205 37.3861C46.71 37.36 46.689 37.3391 46.6733 37.3131C46.6418 37.2583 46.6103 37.2035 46.571 37.1513C46.5422 37.1148 46.5028 37.0835 46.4687 37.0522C46.4347 37.0183 46.4006 36.9792 46.3612 36.9453C46.3193 36.9114 46.2721 36.8879 46.2249 36.8566C46.1829 36.8305 46.1462 36.7992 46.1016 36.7757C45.8918 36.6688 45.6611 36.614 45.4434 36.614C45.2782 36.614 45.1235 36.6453 44.995 36.7079" fill="#231F20"/>
<path d="M41.9608 17.0199C41.9241 17.0225 41.8874 17.0277 41.8507 17.0329C41.8035 17.0434 41.7537 17.0564 41.7065 17.072C41.6698 17.0825 41.633 17.0929 41.5963 17.1086C41.5439 17.1294 41.4914 17.1581 41.4416 17.1868C41.4102 17.2051 41.3813 17.2181 41.3525 17.239C41.2738 17.2912 41.1977 17.3511 41.1296 17.419C40.8306 17.7137 40.6759 18.1076 40.7284 18.4414L40.8647 19.3674C40.9093 19.6674 41.1165 19.8761 41.418 19.9204L42.3489 20.0639C42.6925 20.1186 43.0858 19.9595 43.3821 19.67C43.4319 19.6204 43.4713 19.5657 43.5106 19.5135C43.5316 19.4848 43.5578 19.4587 43.5788 19.43C43.6129 19.3779 43.6365 19.3231 43.6653 19.2683C43.6811 19.237 43.702 19.2057 43.7152 19.1718C43.7361 19.1196 43.744 19.0675 43.7571 19.0153C43.7676 18.9788 43.7807 18.9423 43.786 18.9057C43.7991 18.8171 43.7991 18.731 43.786 18.6449L43.6496 17.7189C43.605 17.419 43.3979 17.2103 43.0963 17.166L42.1654 17.0225C42.1339 17.0173 42.1024 17.0173 42.0736 17.0173C42.0369 17.0173 41.9975 17.0199 41.9608 17.0225" fill="#231F20"/>
<path d="M32.9899 12.1135C32.9768 12.1135 32.961 12.1161 32.9505 12.1187C32.885 12.1318 32.8221 12.15 32.7591 12.1839L31.9226 12.6143C31.6184 12.7708 31.3877 13.1256 31.3195 13.5403C31.2539 13.955 31.3588 14.3619 31.5974 14.6045L32.2556 15.2723C32.468 15.4888 32.7617 15.5357 33.0318 15.3975L33.8684 14.9697C34.1699 14.8132 34.4007 14.4611 34.4715 14.0489C34.5397 13.6342 34.4321 13.2221 34.1935 12.9795L33.5353 12.3091C33.4855 12.2596 33.4331 12.2205 33.3754 12.1892C33.3675 12.1839 33.3596 12.1813 33.3518 12.1761C33.2941 12.1474 33.2338 12.1239 33.1708 12.1161C33.1708 12.1161 33.1656 12.1161 33.163 12.1161C33.1367 12.1109 33.1105 12.1109 33.0843 12.1109C33.0528 12.1109 33.0214 12.1109 32.9899 12.1161" fill="#231F20"/>
<path d="M38.3238 13.8585L37.3955 14.0098C37.0572 14.0646 36.7268 14.3306 36.5354 14.7062C36.3439 15.0792 36.3203 15.4992 36.4698 15.8017L36.8868 16.6416C37.0231 16.9129 37.2853 17.0485 37.5869 16.999L38.5152 16.8477C38.8509 16.7929 39.1813 16.5269 39.3753 16.1539C39.4015 16.1017 39.4173 16.0495 39.4383 15.9948C39.454 15.953 39.475 15.9113 39.4881 15.8669C39.5064 15.8069 39.5117 15.747 39.5195 15.687C39.5248 15.6504 39.5353 15.6139 39.5379 15.58C39.5431 15.5148 39.5327 15.4548 39.5274 15.3922C39.5248 15.3609 39.5274 15.3322 39.5222 15.3035C39.5064 15.2148 39.4802 15.1314 39.4409 15.0557L39.0239 14.2158C38.9925 14.1532 38.9505 14.0985 38.9059 14.0515C38.8928 14.0359 38.8771 14.028 38.8613 14.0124C38.8273 13.9811 38.7932 13.955 38.7538 13.9315C38.7355 13.9185 38.7145 13.9133 38.6935 13.9054C38.6568 13.8872 38.6175 13.8767 38.5755 13.8689C38.5519 13.8637 38.5257 13.8611 38.5021 13.8585C38.4732 13.8585 38.447 13.8533 38.4182 13.8533C38.3867 13.8533 38.3579 13.8533 38.3264 13.8611" fill="#231F20"/>
<path d="M14.9854 21.2481C14.967 21.2507 14.9513 21.2507 14.9329 21.2533C14.849 21.269 14.7677 21.2924 14.6969 21.3289L13.8525 21.7463C13.5798 21.8819 13.4435 22.1402 13.4933 22.4401L13.6454 23.3635C13.6585 23.447 13.6873 23.5304 13.724 23.6113C13.7319 23.6295 13.745 23.6426 13.7555 23.6582C13.7896 23.7208 13.8263 23.786 13.8735 23.8434C13.8919 23.8643 13.9128 23.8826 13.9312 23.9008C13.9784 23.9504 14.0256 24.0025 14.0833 24.0495C14.1069 24.0704 14.1384 24.0834 14.1646 24.1017C14.2223 24.1408 14.28 24.1825 14.3429 24.2164C14.7126 24.4042 15.1506 24.4303 15.4495 24.2842L16.2939 23.8669C16.5666 23.7313 16.7004 23.473 16.6532 23.1731L16.5011 22.2497C16.446 21.9158 16.1785 21.5872 15.8009 21.3942C15.7983 21.3942 15.793 21.3915 15.7904 21.3889C15.7039 21.3446 15.6121 21.3107 15.5203 21.2846C15.5177 21.2846 15.5151 21.2846 15.5098 21.282C15.4154 21.2559 15.3184 21.2403 15.2266 21.235C15.2266 21.235 15.2214 21.235 15.2188 21.235C15.2004 21.235 15.1847 21.235 15.1689 21.235C15.106 21.235 15.0457 21.2403 14.9854 21.2481" fill="#231F20"/>
<path d="M14.3427 36.7523C13.9625 36.9427 13.695 37.2687 13.6373 37.6026L13.48 38.526C13.4275 38.8259 13.5613 39.0868 13.834 39.2224L14.6731 39.6424C14.7492 39.6789 14.8305 39.7076 14.9196 39.7232C14.9327 39.7232 14.9458 39.7232 14.9563 39.7232C15.035 39.7363 15.1137 39.7415 15.1976 39.7363C15.2317 39.7363 15.2658 39.7258 15.2998 39.7206C15.3628 39.7128 15.4257 39.7076 15.4913 39.6893C15.5332 39.6789 15.5726 39.658 15.6145 39.6424C15.6696 39.6215 15.7247 39.6059 15.7771 39.5798C16.1547 39.3894 16.4248 39.0633 16.4825 38.7294L16.6398 37.8061C16.6923 37.5061 16.5585 37.2453 16.2858 37.1096L15.4441 36.6871C15.313 36.6219 15.153 36.588 14.9878 36.588C14.7754 36.588 14.5472 36.6401 14.3427 36.7445" fill="#231F20"/>
<path d="M55.0961 36.8305C55.0594 36.8566 55.0253 36.8853 54.9886 36.9114C54.3068 37.3913 53.5122 37.6417 52.6731 37.6417C52.5289 37.6417 52.3846 37.6313 52.2378 37.6156C53.0796 38.0982 53.7142 38.839 54.0288 39.7284C54.0655 39.8354 54.0996 39.9397 54.1259 40.0493C54.4143 40.8396 55.0594 41.463 55.888 41.7291C56.562 41.9455 57.1703 41.8621 57.6948 41.476C58.1852 41.1161 58.5785 40.5188 58.8303 39.7415C59.0322 39.1207 59.5435 37.0418 57.6161 36.421C57.3382 36.3323 57.0471 36.288 56.7613 36.288C56.1712 36.288 55.5865 36.4732 55.0987 36.8279" fill="#231F20"/>
<path d="M55.88 19.2761C55.054 19.5448 54.4089 20.1682 54.1126 20.9872C54.1126 20.9872 54.1126 20.9872 54.1126 20.9898C54.0943 21.0629 54.0628 21.162 54.0287 21.2585C53.7035 22.1662 53.0742 22.9044 52.2324 23.3869C53.1896 23.2852 54.1467 23.5121 54.9203 24.039C55.0199 24.1069 55.117 24.1799 55.2087 24.2581C55.9063 24.725 56.7952 24.8476 57.6186 24.579C58.2926 24.3599 58.7331 23.9373 58.9298 23.3191C59.1133 22.7427 59.0793 22.028 58.8249 21.2533C58.5705 20.4786 58.1772 19.8813 57.6868 19.5239C57.3512 19.2813 56.984 19.1588 56.5881 19.1588C56.3599 19.1588 56.1239 19.1979 55.88 19.2787" fill="#231F20"/>
<path d="M51.1312 11.9387C50.4467 12.4343 50.0298 13.2012 49.9852 14.0437C49.9852 14.0489 49.9852 14.0515 49.9852 14.0567C49.9957 14.1924 49.9983 14.3202 49.9931 14.4402V14.448V14.4663C49.9564 15.387 49.584 16.266 48.9468 16.9677C49.8069 16.5869 50.785 16.506 51.6609 16.7486L51.695 16.7616C51.7186 16.7695 51.7369 16.7747 51.7605 16.7825C51.8549 16.8138 51.9493 16.8425 52.0542 16.8842C52.8776 17.1033 53.7456 16.9442 54.4326 16.446C56.0716 15.2592 54.9335 13.4412 54.548 12.9117C54.2596 12.5204 53.4178 11.5162 52.3295 11.5162C51.9546 11.5162 51.5507 11.6362 51.1312 11.9387" fill="#231F20"/>
<path d="M44.3473 6.42458C43.8412 7.11841 43.6865 7.98961 43.9225 8.81647C43.9225 8.81647 43.9225 8.81908 43.9225 8.82168C43.9592 8.91037 44.0011 9.02775 44.0352 9.15034C44.2922 10.0633 44.2136 11.0127 43.8281 11.8735C44.5256 11.2475 45.3988 10.8771 46.3166 10.8354H46.3376H46.356C46.4976 10.8301 46.6418 10.8327 46.7965 10.8458C47.6357 10.7936 48.3987 10.3763 48.8891 9.70071C49.3061 9.12947 49.4136 8.52954 49.2064 7.91397C49.015 7.33751 48.5613 6.78193 47.9005 6.30459C47.578 6.07245 46.7834 5.56903 45.939 5.56903C45.3883 5.56903 44.8193 5.78292 44.3499 6.42719" fill="#231F20"/>
<path d="M7.50384 11.6205C6.92693 11.8109 6.36838 12.2595 5.8885 12.9195C5.40599 13.5794 5.15163 14.2471 5.15163 14.8549C5.14901 15.5018 5.43746 16.0391 6.01174 16.4538C6.71452 16.9598 7.59824 17.1111 8.43738 16.8712H8.44262C8.51342 16.8399 8.61307 16.8086 8.71534 16.7773C9.66199 16.5008 10.6244 16.5868 11.495 16.9729C10.8473 16.2634 10.4749 15.3713 10.4461 14.4349C10.4434 14.3097 10.4461 14.1871 10.4539 14.0645C10.4198 13.2299 10.0003 12.4447 9.30011 11.9387C8.91463 11.6622 8.51604 11.5214 8.10696 11.5214C7.90767 11.5214 7.70575 11.5553 7.50384 11.6231" fill="#231F20"/>
<path d="M52.007 44.1314C52.007 44.1314 52.0018 44.1314 52.0018 44.134C51.931 44.1627 51.8313 44.1966 51.729 44.2279C51.3514 44.3374 50.9843 44.3896 50.6093 44.3896C50.0429 44.3896 49.4739 44.2592 48.9468 44.0244C49.5945 44.7365 49.9695 45.6312 49.9983 46.5676C50.0009 46.6902 49.9983 46.8154 49.9905 46.938C50.0245 47.7727 50.4441 48.5578 51.1443 49.0638C51.7186 49.476 52.3217 49.5829 52.9405 49.3794C53.5175 49.189 54.0786 48.7378 54.5585 48.0779C54.944 47.5484 56.0742 45.7303 54.4353 44.5487C53.9528 44.1992 53.3811 44.0192 52.7989 44.0192C52.5367 44.0192 52.2692 44.0557 52.0096 44.1314" fill="#231F20"/>
<path d="M44.0064 51.9513C43.9907 52.0035 43.9723 52.0531 43.9566 52.1026C43.6865 52.9399 43.8333 53.8737 44.3578 54.5884C45.5509 56.216 47.3787 55.0866 47.9084 54.7006C48.4407 54.3171 50.0796 52.9321 48.8891 51.3044C48.3751 50.6002 47.5753 50.1855 46.6943 50.162C46.6549 50.1646 46.6025 50.1672 46.5448 50.1672H46.4399C45.4775 50.1515 44.5597 49.7838 43.8281 49.1238C44.2372 50.0316 44.3027 51.0253 44.0064 51.9513" fill="#231F20"/>
<path d="M1.61678 21.2637C1.36242 22.0384 1.32833 22.7531 1.51451 23.3295C1.71381 23.9451 2.15698 24.3677 2.83091 24.5842C3.65431 24.8502 4.53803 24.725 5.25916 24.2425C5.25916 24.2425 5.25916 24.2425 5.26178 24.2399C5.32996 24.1825 5.42437 24.1094 5.52664 24.0416C6.32382 23.5095 7.2626 23.2878 8.20925 23.3895C7.35962 22.9044 6.71978 22.1531 6.40773 21.2506C6.37888 21.1672 6.35266 21.0863 6.33168 21.0029C6.33168 21.0029 6.33168 21.0029 6.33168 21.0002C6.32906 20.9924 6.32644 20.9846 6.32382 20.9768C6.03536 20.1786 5.38765 19.55 4.55638 19.2813C4.30202 19.2005 4.06601 19.1639 3.84836 19.1639C2.42445 19.1639 1.79248 20.7264 1.61678 21.2663" fill="#231F20"/>
<path d="M6.00648 44.554C4.37016 45.7382 5.50562 47.5562 5.89372 48.0857C6.2792 48.6152 7.67164 50.2481 9.30796 49.0613C10.0134 48.55 10.4329 47.7571 10.4565 46.8833C10.4513 46.8128 10.4513 46.7163 10.4539 46.6198C10.4749 45.6521 10.8473 44.747 11.5028 44.0271C10.9757 44.2618 10.4041 44.3923 9.83504 44.3923C9.4653 44.3923 9.1008 44.3401 8.75203 44.241C8.62878 44.2044 8.50816 44.1627 8.39015 44.1158C8.1489 44.0479 7.89978 44.014 7.65329 44.014C7.07376 44.014 6.49423 44.1966 6.00386 44.5514" fill="#231F20"/>
<path d="M2.82566 36.4315C0.900888 37.0575 1.41748 39.1337 1.62202 39.7545C1.87639 40.5292 2.26973 41.1266 2.7601 41.4839C3.28456 41.8673 3.89294 41.9508 4.56687 41.7317C5.39027 41.4656 6.03274 40.8448 6.32906 40.031C6.35003 39.945 6.38412 39.8302 6.42346 39.718C6.75125 38.8207 7.37798 38.093 8.20663 37.6183C8.0624 37.6339 7.91555 37.6444 7.77132 37.6444C6.92956 37.6444 6.12714 37.3913 5.45845 36.914C5.43485 36.8958 5.42174 36.8853 5.40338 36.8723C5.37716 36.854 5.35094 36.8358 5.32734 36.8149C4.85008 36.4732 4.27317 36.2932 3.69102 36.2932C3.39994 36.2932 3.10887 36.3376 2.82828 36.4288" fill="#231F20"/>
<path d="M13.96 50.1698H13.8577H13.8525H13.8289C12.9321 50.1698 12.085 50.5975 11.5606 51.3201C10.3727 52.9503 12.0169 54.3301 12.5492 54.7136C13.2126 55.1935 13.8839 55.4465 14.4923 55.4491H14.5028C15.1479 55.4491 15.6881 55.1622 16.0998 54.5936C16.619 53.8815 16.7659 52.9868 16.5062 52.1417C16.4853 52.0869 16.4617 52.0113 16.4381 51.9356C16.1496 51.0045 16.2178 50.0211 16.6216 49.129C15.8769 49.7994 14.9434 50.1698 13.9626 50.1724" fill="#231F20"/>
<path d="M20.8959 54.1945C20.8435 54.2128 20.7884 54.231 20.7359 54.2441C20.7359 54.2441 20.7307 54.2441 20.7281 54.2467C20.7281 54.2467 20.7176 54.2519 20.7097 54.2519C19.8732 54.5336 19.2255 55.1831 18.9502 56.0308C18.3287 57.9454 20.3216 58.7514 20.9457 58.9522C21.5725 59.153 23.6598 59.6617 24.2839 57.7445C24.5435 56.9464 24.4281 56.0856 23.9719 55.3787C23.9404 55.3422 23.9115 55.3057 23.8827 55.2692C23.8643 55.2483 23.846 55.2248 23.8303 55.204C23.7831 55.144 23.7411 55.084 23.7018 55.024C23.1904 54.2597 22.9754 53.3311 23.075 52.3973C22.582 53.2503 21.819 53.8867 20.8985 54.1945" fill="#231F20"/>
<path d="M20.9248 2.05034C20.146 2.30336 19.5455 2.69461 19.1863 3.18238C18.8008 3.70406 18.7169 4.3092 18.9371 4.97956C19.2072 5.8038 19.834 6.44286 20.6574 6.73761C20.7518 6.77151 20.8304 6.79499 20.9065 6.81325C21.8295 7.13147 22.5795 7.76531 23.0673 8.60781C22.965 7.65315 23.1905 6.71152 23.7228 5.93683C23.791 5.83771 23.8644 5.7412 23.9405 5.64991C24.4099 4.95608 24.5331 4.07184 24.2657 3.25281C24.0454 2.58245 23.6206 2.14424 22.9991 1.94601C22.7552 1.87036 22.4877 1.83124 22.2019 1.83124C21.8059 1.83124 21.3733 1.90427 20.9222 2.05295" fill="#231F20"/>
<path d="M28.7394 55.8848C28.7394 55.8848 28.7341 55.8848 28.7315 55.89C28.6607 55.9447 28.5899 55.9943 28.5165 56.0413C28.5165 56.0413 28.5138 56.0413 28.5112 56.0413C28.5034 56.0465 28.4955 56.0517 28.4902 56.0569C27.8163 56.576 27.4177 57.3794 27.4177 58.2506C27.4177 58.9548 27.6878 59.5026 28.2149 59.8808C28.7079 60.2303 29.4002 60.4181 30.2157 60.4181H30.221C30.8792 60.4181 33.0242 60.259 33.0216 58.2453C33.0216 57.322 32.5601 56.4586 31.7891 55.9395H31.7865C31.7865 55.9395 31.7839 55.9369 31.7812 55.9343H31.7786L31.7681 55.9291C30.9788 55.3553 30.4281 54.4893 30.2236 53.5242C30.0217 54.4788 29.5025 55.3135 28.7367 55.8874" fill="#231F20"/>
<path d="M2.3222 27.7169C0.297783 27.7169 0.143066 29.8531 0.143066 30.5078C0.143066 31.1625 0.303027 33.2936 2.32482 33.2936H2.32745C3.20592 33.2936 4.01621 32.8919 4.55116 32.1928C4.58525 32.1381 4.63769 32.0676 4.69014 31.9972C5.27754 31.2225 6.11667 30.7035 7.07644 30.5026C6.09569 30.2992 5.24607 29.7644 4.66654 28.9793L4.60098 28.8906C4.60098 28.8906 4.59312 28.8802 4.59049 28.875C4.06865 28.1525 3.21903 27.7195 2.3222 27.7195H2.31958L2.3222 27.7169Z" fill="#231F20"/>
<path d="M36.7189 55.0657C36.7189 55.0657 36.7189 55.0657 36.7189 55.0683C36.6507 55.1674 36.5799 55.2614 36.5038 55.3526C36.0344 56.0465 35.9086 56.9307 36.1787 57.7497C36.3989 58.4201 36.8238 58.8583 37.4452 59.0539C38.0248 59.2365 38.7433 59.2 39.5221 58.947C40.1488 58.7435 42.1365 57.9323 41.5098 56.0178C41.2397 55.1961 40.613 54.5545 39.7896 54.2597C39.7896 54.2597 39.787 54.2597 39.7843 54.2597C39.7109 54.2415 39.6139 54.2102 39.5169 54.1763C38.6043 53.8528 37.8622 53.2242 37.3771 52.3895C37.4793 53.3442 37.2538 54.2858 36.7215 55.0605" fill="#231F20"/>
<path d="M58.117 27.7064C57.2411 27.7064 56.4282 28.1081 55.8933 28.8072C55.8618 28.8593 55.8093 28.9271 55.7595 28.9976C55.7595 28.9976 55.7569 29.0028 55.7543 29.0028C55.1669 29.7775 54.3277 30.2965 53.3706 30.4974C54.3487 30.7008 55.201 31.2356 55.7805 32.0207C55.7884 32.0337 55.7936 32.0389 55.8015 32.0494C55.8198 32.0755 55.8408 32.1015 55.8565 32.1276C56.381 32.8502 57.2385 33.2753 58.1301 33.2831C58.8381 33.2831 59.3914 33.0145 59.769 32.4876C60.123 31.9946 60.3118 31.3034 60.3092 30.4896C60.3092 29.8349 60.1493 27.7064 58.1248 27.7064H58.1222H58.117Z" fill="#231F20"/>
<path d="M37.4323 1.94601C36.8135 2.14424 36.3887 2.58245 36.171 3.25541C35.9035 4.07184 36.032 4.95347 36.5171 5.67078C36.5171 5.67078 36.5171 5.67078 36.5171 5.67599C36.5748 5.74381 36.6483 5.83771 36.7164 5.93683H36.7138C37.2514 6.72978 37.4743 7.66097 37.372 8.60521C37.8598 7.76009 38.615 7.12625 39.5223 6.81586C39.6036 6.78716 39.6875 6.76108 39.7714 6.74021C39.7714 6.74021 39.7872 6.735 39.795 6.73239C40.5974 6.44547 41.2268 5.8012 41.4995 4.97434C41.7172 4.30399 41.6333 3.69884 41.2452 3.17716C40.8833 2.6894 40.2828 2.29814 39.5039 2.05034C39.0555 1.90427 38.6255 1.83124 38.2321 1.83124C37.9437 1.83124 37.6736 1.87036 37.4271 1.94862" fill="#231F20"/>
<path d="M30.213 0.579224C29.5548 0.579224 27.4097 0.738335 27.4124 2.75461C27.4124 3.62581 27.8162 4.4318 28.519 4.96652C28.5714 4.99782 28.6448 5.0526 28.7156 5.10477C29.4945 5.69165 30.0163 6.52373 30.2182 7.4784C30.4254 6.50547 30.9603 5.65774 31.7496 5.0839C31.7811 5.06303 31.81 5.03956 31.8414 5.01869L31.8519 5.01087C31.8519 5.01087 31.8572 5.00826 31.8572 5.00565C32.5835 4.48658 33.0188 3.63886 33.0162 2.74679C33.0162 2.04253 32.7461 1.49216 32.219 1.11655C31.726 0.764418 31.0338 0.579224 30.2182 0.579224H30.213V0.579224Z" fill="#231F20"/>
<path d="M12.5414 6.2968C12.0091 6.68284 10.3675 8.06528 11.5607 9.69552C12.0746 10.3972 12.8718 10.8145 13.7477 10.838H13.7529C13.7923 10.8354 13.8421 10.8328 13.8971 10.8328H14.0152C14.988 10.8562 15.8927 11.2266 16.6165 11.8761C16.2231 11.0023 16.1445 10.0424 16.4067 9.14515C16.4408 9.02256 16.4854 8.90257 16.5326 8.78259C16.7581 7.98181 16.6034 7.1054 16.0946 6.40896C15.6252 5.76729 15.0562 5.55341 14.5081 5.55341C13.6638 5.55341 12.864 6.05943 12.544 6.29419" fill="#231F20"/>
<path d="M50.1897 38.1086C49.1827 38.1086 48.2964 38.6225 47.8742 39.4494C47.5674 40.0493 47.5333 40.7457 47.7798 41.4135C48.0341 42.0969 48.5507 42.6655 49.2352 43.0098C49.6652 43.2263 50.1399 43.3411 50.6066 43.3411C50.882 43.3411 51.1494 43.3019 51.4064 43.2289C51.493 43.195 51.59 43.1611 51.6896 43.1324C52.1197 42.9498 52.4003 42.4594 52.694 41.883C52.9955 41.2909 53.2184 40.8005 53.1083 40.3284C53.0768 40.2397 53.0454 40.1354 53.0191 40.0336C52.7726 39.3555 52.2561 38.792 51.5664 38.4425C51.1337 38.2234 50.6591 38.1086 50.1897 38.1086V38.1086Z" fill="#231F20"/>
<path d="M52.6757 24.4068C52.5105 24.4068 52.3453 24.4198 52.1827 24.4459C51.4249 24.5659 50.7588 24.9493 50.3051 25.5232C49.8646 26.0814 49.6837 26.7543 49.7886 27.4195C49.9852 28.6506 51.1259 29.5453 52.5 29.5453C52.6652 29.5453 52.8304 29.5323 52.993 29.5062C53.7246 29.3914 54.3671 29.0315 54.8181 28.4915V28.4602L54.9152 28.3611C54.9492 28.3115 54.9886 28.2542 55.0384 28.189C55.2928 27.7768 55.2246 27.1899 55.1249 26.5718C55.0201 25.9171 54.9099 25.3902 54.5454 25.0745C54.4615 25.0198 54.3671 24.9467 54.2779 24.8737C53.8243 24.5711 53.2526 24.4068 52.6705 24.4068H52.6757Z" fill="#231F20"/>
<path d="M40.1175 53.2686C40.1857 53.2842 40.2723 53.292 40.3588 53.292C40.7705 53.292 41.2163 53.0834 41.6726 52.8486C42.4566 52.4522 42.8054 52.1522 42.9575 51.7531C42.9575 51.7505 42.9575 51.7453 42.9601 51.7427C42.9601 51.7375 42.9627 51.7296 42.9654 51.7244C42.9785 51.6827 42.9916 51.6462 43.0047 51.6123C43.2328 50.895 43.1568 50.1124 42.7949 49.4056C42.2941 48.4326 41.3133 47.804 40.2959 47.804C39.913 47.804 39.5485 47.8901 39.2128 48.0622C38.6097 48.37 38.1718 48.9126 37.9777 49.596C37.7784 50.3002 37.8597 51.0593 38.2111 51.7401C38.5651 52.4261 39.142 52.9399 39.8448 53.1877C39.9261 53.2086 40.0231 53.2373 40.1175 53.2712V53.2686Z" fill="#231F20"/>
<path d="M49.2274 17.9902C47.8349 18.6971 47.2292 20.296 47.8769 21.5533C48.2991 22.3775 49.1854 22.8888 50.1898 22.8888C50.6618 22.8888 51.1391 22.7714 51.5717 22.5523C52.264 22.2028 52.778 21.6263 53.0271 20.9299C53.0533 20.8333 53.0874 20.7316 53.1136 20.6534C53.2212 20.1943 52.9851 19.6804 52.6915 19.104C52.3846 18.5041 52.1303 18.0632 51.7081 17.8728C51.5848 17.8363 51.4642 17.7946 51.3383 17.745C51.105 17.6824 50.8611 17.6511 50.612 17.6511C50.14 17.6511 49.6627 17.7659 49.23 17.9876L49.2274 17.9902Z" fill="#231F20"/>
<path d="M6.09313 36.0767C6.6884 36.4967 7.49869 36.6767 8.26178 36.5567C9.01963 36.4367 9.68569 36.0533 10.1393 35.4794C10.5799 34.9212 10.7635 34.2483 10.6559 33.5831C10.4593 32.352 9.31857 31.4599 7.94448 31.4599C7.7819 31.4599 7.61407 31.4729 7.45149 31.499C6.72249 31.6138 6.08002 31.9738 5.62899 32.5163V32.5476L5.52934 32.6467C5.49525 32.6963 5.45329 32.7537 5.40609 32.8189C5.15173 33.2284 5.21991 33.8179 5.31956 34.4335C5.45592 35.2994 5.63423 35.722 5.96989 35.9907C6.01709 36.0246 6.0538 36.0533 6.09313 36.082V36.0767Z" fill="#231F20"/>
<path d="M7.41741 20.9429C7.66128 21.6341 8.1805 22.208 8.87803 22.5601C9.30809 22.7766 9.78535 22.8914 10.2547 22.8914C11.2617 22.8914 12.148 22.3775 12.5702 21.5506C13.2127 20.2908 12.6017 18.6945 11.2093 17.9902C10.7792 17.7737 10.3046 17.6589 9.83517 17.6589C9.56245 17.6589 9.29498 17.6981 9.03799 17.7711C8.95408 17.805 8.85443 17.8389 8.75478 17.8676C8.3221 18.0502 8.04152 18.5406 7.74782 19.1144C7.45675 19.683 7.24172 20.1604 7.32301 20.6195L7.3571 20.6612V20.7447C7.37807 20.8073 7.39905 20.8751 7.41741 20.9403V20.9429Z" fill="#231F20"/>
<path d="M9.09836 43.2524C9.3265 43.3124 9.58086 43.3463 9.83523 43.3463C10.3072 43.3463 10.7845 43.2315 11.2172 43.0124C11.9016 42.6655 12.4156 42.0968 12.6673 41.4108C12.9112 40.7457 12.8771 40.0493 12.5677 39.4493C12.1455 38.6277 11.2591 38.1165 10.2548 38.1165C9.78278 38.1165 9.3029 38.2338 8.87284 38.4529C8.19104 38.7998 7.67707 39.3685 7.42533 40.0519C7.40173 40.1484 7.36764 40.2579 7.3283 40.3701C7.22866 40.8135 7.46204 41.3222 7.75574 41.896C8.04681 42.4646 8.32478 42.9498 8.76533 43.1402C8.86497 43.1689 8.98298 43.2106 9.09836 43.255V43.2524Z" fill="#231F20"/>
<path d="M49.7885 33.5857C49.6837 34.2534 49.8698 34.929 50.3156 35.4872C50.7693 36.0558 51.4354 36.4341 52.188 36.554C52.9537 36.6714 53.7377 36.4993 54.3435 36.0767L54.3487 36.0715L54.3671 36.0584C54.3881 36.0428 54.4169 36.0219 54.4458 36.0011H54.4484C54.8103 35.7194 54.9886 35.3046 55.1276 34.4204C55.2665 33.544 55.2298 33.0979 54.9833 32.7302L54.9414 32.6702C54.9309 32.6545 54.9204 32.6389 54.9099 32.6258C54.4589 32.0181 53.7771 31.6164 52.9878 31.4938C52.8278 31.4677 52.6626 31.4547 52.5 31.4547C51.1233 31.4547 49.98 32.3519 49.7859 33.5857H49.7885Z" fill="#231F20"/>
<path d="M5.53184 28.3716C5.98288 28.9819 6.66468 29.3862 7.45661 29.5088C7.61658 29.5349 7.77916 29.5453 7.94436 29.5453C9.32107 29.5453 10.4618 28.6481 10.6558 27.4143C10.7607 26.7492 10.5772 26.0762 10.1366 25.5206C9.68295 24.9468 9.01426 24.5659 8.25642 24.4486C8.09646 24.4225 7.93125 24.412 7.77129 24.412C7.17865 24.412 6.61748 24.579 6.14284 24.8972C6.06679 24.9598 5.97239 25.0302 5.87274 25.0981C5.52922 25.398 5.41908 25.9484 5.31681 26.5822C5.17783 27.456 5.21979 27.9151 5.46629 28.2803L5.4794 28.2985C5.4794 28.2985 5.48726 28.3116 5.49251 28.3168L5.503 28.3298C5.503 28.3298 5.52135 28.3533 5.52922 28.3664L5.53447 28.3742L5.53184 28.3716Z" fill="#231F20"/>
<path d="M28.4063 55.9239H28.4036C28.4036 55.9239 28.4036 55.9239 28.4063 55.9239ZM24.8111 54.7423C25.1205 55.0736 25.6187 55.1727 26.2822 55.277C27.1161 55.4075 27.575 55.3814 27.9028 55.1858H27.908C27.9762 55.1284 28.0549 55.0736 28.1335 55.024C28.7157 54.5806 29.1038 53.9155 29.2244 53.1486C29.4657 51.6123 28.5216 50.1855 27.1213 49.9664C27.0033 49.9481 26.8801 49.9377 26.7516 49.9377C25.4771 49.9377 24.3522 50.9758 24.1345 52.353C24.0191 53.0834 24.166 53.8137 24.5515 54.4111C24.5987 54.4658 24.6406 54.518 24.6773 54.5676H24.68L24.6983 54.5963C24.7429 54.6536 24.777 54.7006 24.8058 54.7449L24.8111 54.7423ZM27.929 55.1701C27.929 55.1701 27.929 55.1701 27.9264 55.1701H27.929Z" fill="#231F20"/>
<path d="M17.5107 51.8157C17.6969 52.2722 18.2188 52.5669 18.7799 52.8512C19.2965 53.1121 19.7187 53.2842 20.1016 53.2842C20.2065 53.2842 20.3087 53.2712 20.411 53.2451C20.4608 53.2294 20.508 53.2138 20.5552 53.2007L20.5736 53.1929C21.2868 52.9556 21.8769 52.4365 22.2361 51.7296C22.5849 51.0488 22.6636 50.2872 22.4643 49.5855C22.2676 48.9047 21.8297 48.3622 21.2265 48.057C20.8909 47.8875 20.529 47.8014 20.1488 47.8014C19.1261 47.8014 18.1453 48.4326 17.6471 49.4108C17.2905 50.1124 17.217 50.8923 17.4399 51.6122C17.4635 51.6722 17.4871 51.7427 17.5081 51.8157H17.5107Z" fill="#231F20"/>
<path d="M13.8605 49.1186H13.9628C14.7285 49.1186 15.4654 48.8056 16.0344 48.2396C17.1384 47.1389 17.2171 45.433 16.2127 44.434C15.7591 43.9853 15.1402 43.7375 14.4715 43.7375C13.711 43.7375 12.9532 44.061 12.3894 44.6218C11.8387 45.1696 11.5267 45.879 11.5083 46.6224C11.5135 46.7189 11.5135 46.818 11.5109 46.8911C11.5503 47.3632 11.9331 47.7831 12.3946 48.2396C13.0266 48.8656 13.4121 49.0978 13.8605 49.116V49.1186Z" fill="#231F20"/>
<path d="M44.4102 12.763C43.8726 13.3003 43.5606 13.9942 43.5291 14.7219C43.5003 15.434 43.7494 16.0913 44.2319 16.5686C44.6855 17.0173 45.3044 17.2651 45.9731 17.2651C46.7336 17.2651 47.4914 16.9416 48.0552 16.3808C48.5849 15.8513 48.897 15.1679 48.9337 14.4558C48.9258 14.3254 48.9206 14.2028 48.9258 14.0828C48.8786 13.6185 48.5325 13.2403 48.0473 12.7604C47.5727 12.2883 47.2003 11.9492 46.7572 11.897C46.6129 11.9022 46.4687 11.897 46.3428 11.8866C46.3376 11.8866 46.3297 11.8866 46.3192 11.8866C45.6112 11.9309 44.932 12.2413 44.4076 12.763H44.4102ZM48.9363 14.4219C48.9363 14.4219 48.9363 14.4245 48.9363 14.4271V14.4219ZM46.6968 11.8866C46.6968 11.8866 46.6968 11.8866 46.6995 11.8866H46.6968ZM46.3612 11.884H46.3559H46.3612Z" fill="#231F20"/>
<path d="M45.9757 43.7349C45.3018 43.7349 44.6829 43.9853 44.2292 44.4366C43.7494 44.9165 43.5002 45.5712 43.5317 46.2833C43.5632 47.0084 43.8779 47.7049 44.418 48.2396C44.9687 48.7873 45.682 49.0977 46.4294 49.116C46.4844 49.1134 46.5421 49.1108 46.6077 49.1108H46.6968C47.1741 49.0743 47.5963 48.6908 48.0552 48.2318C48.5246 47.7623 48.8891 47.3658 48.931 46.8911C48.9258 46.7685 48.931 46.6328 48.9389 46.5494C48.9101 45.8373 48.5954 45.1513 48.0526 44.6113C47.4888 44.0531 46.7309 43.7323 45.9731 43.7323L45.9757 43.7349Z" fill="#231F20"/>
<path d="M33.6929 49.9351C33.5644 49.9351 33.4412 49.9455 33.3232 49.9638H33.3206C31.9176 50.1881 30.9788 51.6175 31.2253 53.1512C31.3512 53.9311 31.776 54.6328 32.3949 55.0788C32.6571 55.2666 32.9587 55.3501 33.373 55.3501C33.5933 55.3501 33.8503 55.3266 34.1754 55.2744C34.8336 55.1701 35.3633 55.0605 35.6806 54.698C35.7331 54.6197 35.8039 54.5284 35.8799 54.4345C36.2785 53.8424 36.4306 53.1016 36.31 52.3452C36.0897 50.9706 34.9647 49.9351 33.6929 49.9351V49.9351Z" fill="#231F20"/>
<path d="M32.3554 5.94469C31.7471 6.39073 31.3432 7.06891 31.22 7.85403C31.102 8.60785 31.2619 9.35646 31.671 9.96421C32.0696 10.5511 32.657 10.9319 33.3231 11.0389C33.4437 11.0571 33.5696 11.0676 33.6902 11.0676C34.9646 11.0676 36.0896 10.0294 36.3073 8.6522C36.4279 7.89837 36.2679 7.14977 35.8588 6.54462C35.7959 6.47159 35.7251 6.38029 35.6569 6.28118C35.3554 5.93687 34.802 5.82471 34.1648 5.72559C33.9314 5.68907 33.6246 5.64734 33.3414 5.64734C32.9691 5.64734 32.699 5.71777 32.463 5.87427C32.4131 5.91079 32.3843 5.92904 32.3581 5.9473L32.3554 5.94469Z" fill="#231F20"/>
<path d="M39.8317 7.8175C39.1368 8.06008 38.5599 8.57654 38.2085 9.27037C37.8624 9.94594 37.7811 10.705 37.9778 11.404C38.1718 12.09 38.6124 12.6378 39.2181 12.943C39.5538 13.1125 39.9156 13.1986 40.2959 13.1986C41.3186 13.1986 42.2993 12.5674 42.7976 11.5892C43.1437 10.9163 43.225 10.1624 43.0283 9.466C42.989 9.36949 42.947 9.25211 42.9129 9.13212C42.732 8.71478 42.2416 8.4409 41.6673 8.14876C41.2268 7.92705 40.7626 7.70795 40.3536 7.70795C40.3195 7.70795 40.288 7.70795 40.2565 7.71056L40.2329 7.75751H40.0258C39.9628 7.77837 39.8947 7.79924 39.8291 7.8175H39.8317Z" fill="#231F20"/>
<path d="M11.5029 14.4532C11.5317 15.1653 11.8464 15.8513 12.3892 16.3886C12.953 16.9468 13.7108 17.2677 14.4661 17.2677C15.14 17.2677 15.7589 17.0173 16.2125 16.566C16.6898 16.0887 16.9389 15.4366 16.9127 14.7271C16.8838 13.9994 16.5692 13.3003 16.0263 12.7604C15.4757 12.2126 14.7624 11.9022 14.015 11.884C13.9809 11.884 13.9311 11.8892 13.842 11.8892H13.7449C13.2651 11.9257 12.8455 12.3065 12.384 12.7656C11.9146 13.2325 11.5527 13.6316 11.5081 14.1089C11.5134 14.208 11.5081 14.328 11.5002 14.4506L11.5029 14.4532Z" fill="#231F20"/>
<path d="M24.5647 6.56808C24.1714 7.15236 24.014 7.91401 24.1347 8.6574C24.3549 10.0294 25.4799 11.0675 26.7517 11.0675C26.8724 11.0675 26.9982 11.0571 27.1267 11.0389C27.7928 10.9319 28.3776 10.5485 28.7761 9.96159C29.1826 9.35644 29.3426 8.60784 29.2193 7.85141C29.0961 7.09498 28.7106 6.43244 28.1311 5.9838L28.0262 5.94207L28.0026 5.89512C27.9659 5.86904 27.9291 5.84295 27.8977 5.81948C27.7036 5.7021 27.4545 5.64471 27.1346 5.64471C26.8592 5.64471 26.5577 5.68645 26.2718 5.7334C25.6136 5.83773 25.0866 5.94729 24.7666 6.30985C24.7116 6.39071 24.6434 6.48201 24.5647 6.57591V6.56808Z" fill="#231F20"/>
<path d="M17.4031 9.48947C17.2169 10.1624 17.3034 10.9293 17.647 11.597C18.1452 12.57 19.1286 13.1986 20.146 13.1986C20.5289 13.1986 20.8934 13.1125 21.229 12.9404C21.8348 12.6326 22.2727 12.0848 22.4668 11.3988C22.6634 10.6972 22.5795 9.94072 22.2334 9.26515C21.882 8.57915 21.3025 8.06529 20.6023 7.8175C20.5027 7.79141 20.403 7.76012 20.3243 7.73142C20.2562 7.71577 20.1696 7.70795 20.0831 7.70795C19.674 7.70795 19.2282 7.91922 18.7693 8.15137C18.2003 8.4409 17.7125 8.71478 17.5211 9.15299C17.4923 9.25211 17.4529 9.36949 17.4031 9.48947V9.48947Z" fill="#231F20"/>
</svg>
