<svg width="24" height="24" viewBox="0 0 24 24" fill="none" xmlns="http://www.w3.org/2000/svg">
<path fill-rule="evenodd" clip-rule="evenodd" d="M8.10498 6.78617L11.3291 3.56581C11.584 3.31088 11.9889 3.31089 12.2401 3.54707L15.498 6.76743V8.60443L12.4425 5.56775V11.7048L11.1417 11.9748V5.56775L8.10123 8.60443V6.78244L8.10498 6.78617ZM5.19953 11.0525H6.87158C6.87158 11.0525 6.87157 9.75537 6.89032 9.75537H5.21827C4.98208 9.75537 4.72717 9.80784 4.50973 9.90532C4.28854 9.99154 4.08609 10.1265 3.91738 10.2952C3.74868 10.4639 3.61373 10.6664 3.5275 10.8838C3.42628 11.105 3.37378 11.3412 3.37378 11.5924V18.423C3.37378 18.6592 3.42628 18.9104 3.5275 19.1316C3.61373 19.334 3.74868 19.5364 3.91738 19.7051C4.07109 19.8738 4.27353 19.9901 4.49097 20.0913C4.71216 20.1925 4.94835 20.245 5.19953 20.245H18.4222C18.6583 20.245 18.9133 20.1925 19.1307 20.0913C19.3332 20.0088 19.5356 19.8738 19.7043 19.7051C19.873 19.5552 19.9892 19.3527 20.0942 19.1316C20.1954 18.9104 20.2479 18.6779 20.2479 18.423V11.5924C20.2479 11.3562 20.1954 11.105 20.0942 10.8838C20.008 10.6664 19.873 10.4639 19.7043 10.2952C19.5506 10.1265 19.3482 9.99154 19.1307 9.90532C18.9095 9.80409 18.6733 9.75537 18.4222 9.75537H16.7164V11.0525H18.4222C18.7258 11.0525 18.962 11.2887 18.962 11.5924V18.423C18.962 18.7267 18.7258 18.9628 18.4222 18.9628H5.19953C4.89586 18.9628 4.65967 18.7267 4.65967 18.423V11.5924C4.65967 11.2887 4.89586 11.0525 5.19953 11.0525Z" fill="#1E1C23"/>
</svg>
