<svg width="358" height="104" viewBox="0 0 358 104" fill="none" xmlns="http://www.w3.org/2000/svg">
<path d="M120.98 60.9898H134.735V63.8212H124.431V69.0873H133.727L134.159 71.9187H124.431V77.6144H135.023V80.4458H120.98V60.9843V60.9898Z" fill="#FDFDFD"/>
<path d="M146.162 72.8716L140.778 80.4568H136.978L144.202 70.3818L137.582 61.1937L141.321 60.764L146.445 67.9195L151.253 60.9953H155.026L148.461 70.3542L155.773 80.2254L152.001 80.6826L146.157 72.8716H146.162Z" fill="#FDFDFD"/>
<path d="M173.998 67.4292C173.998 71.2631 171.295 73.8962 166.459 73.8962H161.54V80.4513H158.089V60.9898H166.464C171.3 60.9898 174.003 63.6229 174.003 67.4292H173.998ZM170.458 67.4292C170.458 65.0551 168.73 63.8212 166.315 63.8212H161.54V71.0593H166.315C168.73 71.0593 170.458 69.7979 170.458 67.4237V67.4292Z" fill="#FDFDFD"/>
<path d="M175.809 70.7233C175.809 65.1708 179.609 60.7089 186.257 60.7089C192.904 60.7089 196.676 65.1763 196.676 70.7233C196.676 76.2703 192.876 80.7377 186.257 80.7377C179.637 80.7377 175.809 76.3034 175.809 70.7233ZM179.321 70.7233C179.321 74.9593 181.88 77.9064 186.229 77.9064C190.577 77.9064 193.137 74.9593 193.137 70.7233C193.137 66.4873 190.605 63.5403 186.229 63.5403C181.853 63.5403 179.321 66.4873 179.321 70.7233Z" fill="#FDFDFD"/>
<path d="M215.815 80.7377C209.799 80.7377 205.6 76.8763 205.6 70.7233C205.6 64.5704 209.805 60.7089 215.959 60.7089C218.806 60.7089 220.767 61.3369 222.523 62.3394L221.947 65.347C219.931 64.003 218.119 63.5458 216.047 63.5458C211.932 63.5458 209.14 66.1788 209.14 70.7288C209.14 75.2788 211.932 77.9119 215.903 77.9119C217.975 77.9119 220.396 77.3665 222.379 76.0225V79.1127C220.623 80.0877 218.668 80.7432 215.815 80.7432V80.7377Z" fill="#FDFDFD"/>
<path d="M225.885 80.4513V61.1881L229.336 60.7585V80.4513H225.885Z" fill="#FDFDFD"/>
<path d="M238.432 63.8267H231.957V60.9953H248.359L247.927 63.8267H241.883V80.4568H238.432V63.8267Z" fill="#FDFDFD"/>
<path d="M259.814 80.4513H256.363V74.0394L249.084 61.1881L252.535 60.7585L258.175 70.8059L263.642 60.9898H267.298L259.814 74.1V80.4513Z" fill="#FDFDFD"/>
<path d="M275.214 60.9898H282.437C289.001 60.9898 292.857 65.1708 292.857 70.7178C292.857 76.2648 289.001 80.4458 282.437 80.4458H275.214V60.9843V60.9898ZM289.317 70.7178C289.317 66.4818 286.725 63.8212 282.437 63.8212H278.665V77.6144H282.437C286.725 77.6144 289.317 74.9538 289.317 70.7178Z" fill="#FDFDFD"/>
<path d="M298.701 60.764V72.7009C298.701 75.9068 300.224 77.9119 303.825 77.9119C307.425 77.9119 308.921 75.9068 308.921 72.7009V61.1937L312.372 60.764V73.3564C312.372 77.2784 309.752 80.7377 303.825 80.7377C297.898 80.7377 295.25 77.1297 295.25 73.3564V61.1937L298.701 60.764Z" fill="#FDFDFD"/>
<path d="M330.84 66.2009C330.84 68.0627 329.948 69.7208 327.932 70.3818C330.381 70.8996 331.416 72.7835 331.416 74.9593C331.416 78.7932 329.001 80.4568 324.309 80.4568H315.446V60.9953H323.589C328.281 60.9953 330.84 62.6259 330.84 66.2064V66.2009ZM327.328 66.5148C327.328 64.3665 325.805 63.8267 323.445 63.8267H318.897V69.1809H323.445C325.805 69.1809 327.328 68.6962 327.328 66.5203V66.5148ZM318.897 77.6199H324.165C326.525 77.6199 327.904 76.9038 327.904 74.7555C327.904 72.6072 326.525 71.8636 324.165 71.8636H318.897V77.6199Z" fill="#FDFDFD"/>
<path d="M346.727 76.2153H337.316L335.649 80.4513H332.081L340.052 61.0449L344.079 60.6153L351.934 80.2199L348.483 80.6771L346.727 76.2097V76.2153ZM345.603 73.3839L342.035 64.2839L338.44 73.3839H345.608H345.603Z" fill="#FDFDFD"/>
<path d="M353.895 80.4513V61.1881L357.346 60.7585V80.4513H353.895Z" fill="#FDFDFD"/>
<path d="M129.932 48.1055L127.722 45.9627L125.345 48.2983L127.75 50.6559L129.932 48.4856L132.17 50.6559L134.541 48.2983L132.142 45.9627L129.932 48.1055Z" fill="#FDFDFD"/>
<path d="M163.911 32.6653C163.911 34.786 162.858 35.7996 160.892 35.7996H143.98V27.5975L142.119 25.9614H138.585C134.973 25.9614 133.112 28.1869 133.112 31.536V36.3614C133.112 40.1953 131.766 41.5614 128.204 41.5614C125.024 41.5614 123.24 39.9805 123.191 36.8187C123.191 35.2377 123.512 33.6017 124.082 31.8831L121.712 31.2386C120.931 33.5962 120.526 35.717 120.526 37.6174C120.526 42.3602 123.44 44.6407 128.132 44.6407C134.092 44.6407 136.031 41.6936 136.031 36.703V32.1475C136.031 30.0818 137.139 29.0352 139.078 29.0352H141.044V38.8733H160.87C164.858 38.8733 166.83 36.9674 166.83 33.5631V25.4657L163.889 25.8678L163.916 32.6487L163.911 32.6653Z" fill="#FDFDFD"/>
<path d="M161.484 42.9881L163.008 45.3182L166.287 42.9881L163.861 40.6305L161.484 42.9881Z" fill="#FDFDFD"/>
<path d="M175.532 25.4822H173.211V28.4843H174.884C177.017 28.4843 178.551 29.7953 178.579 31.7288L178.607 33.0674C178.607 34.7805 177.554 35.7996 175.588 35.7996H168.819L169.328 38.8843H175.555C179.543 38.8843 181.515 36.9784 181.543 33.5742L181.515 31.4038C181.515 27.7297 179.006 25.4767 175.527 25.4767L175.532 25.4822Z" fill="#FDFDFD"/>
<path d="M206.564 43.0157L208.087 45.3458L211.361 43.0157L208.935 40.6525L206.564 43.0157Z" fill="#FDFDFD"/>
<path d="M258.922 27.3275H254.718L262.024 19.3623L259.194 17.8364L251.267 27.3L252.829 30.0102H259.166C261.271 30.0102 262.589 31.1339 262.589 32.9352C262.589 34.7364 261.271 35.8051 259.138 35.8051H239.03C237.923 35.8051 236.981 35.5076 236.089 34.9733C236.172 34.5436 236.222 34.0644 236.222 33.5521V25.4547L233.308 25.8568V32.6377C233.308 34.7309 232.228 35.772 230.317 35.772C229.375 35.772 228.511 35.6123 227.569 35.2377C227.702 34.7309 227.785 34.1636 227.785 33.5466V28.264L224.844 28.6661L224.872 32.6322C224.872 34.775 223.819 35.7665 221.853 35.7665C221.072 35.7665 220.208 35.5792 219.343 35.2322C219.476 34.7254 219.559 34.1581 219.559 33.5686V28.286L216.618 28.6881L216.646 32.6542C216.646 34.775 215.593 35.7886 213.627 35.7886C212.414 35.7886 211.389 35.4415 210.419 34.797C210.503 34.3949 210.525 33.9928 210.525 33.5631V28.2805L207.583 28.6826L207.611 32.6487C207.611 34.7695 206.559 35.7831 204.592 35.7831H203.085V31.9767C203.085 28.1703 200.631 25.7301 197.236 25.7301C193.596 25.7301 190.871 28.4898 190.871 32.3788C190.871 36.2678 193.408 38.8678 197.208 38.8678H200.122C199.717 41.2254 197.158 42.1949 192.355 42.1949L192.677 44.6352C198.715 44.6352 202.709 42.9992 203.058 38.8733H204.57C206.835 38.8733 208.425 38.2564 209.395 37.1326C210.635 38.2564 212.065 38.8733 213.627 38.8733C215.621 38.8733 217.133 38.339 218.103 37.3695C219.476 38.361 220.85 38.8458 222.119 38.8458C223.897 38.8458 225.326 38.3114 226.295 37.397C227.857 38.3886 229.287 38.8458 230.771 38.8458C232.688 38.8458 234.089 38.3114 235.003 37.2924C236.161 38.339 237.535 38.8733 239.019 38.8733H259.266C263.094 38.8733 265.52 36.6479 265.52 32.9462C265.52 29.5144 262.905 27.3165 258.917 27.3165L258.922 27.3275ZM200.177 35.8547C199.235 35.8822 198.26 35.9373 197.535 35.9373C195.192 35.9373 193.546 34.7309 193.546 32.2907C193.546 30.1203 195.081 28.7267 196.97 28.7267C198.859 28.7267 200.177 30.0928 200.177 32.2136V35.8602V35.8547Z" fill="#FDFDFD"/>
<path d="M271.674 19.3127L268.733 19.7148V38.8843H271.674V19.3127Z" fill="#FDFDFD"/>
<path d="M268.788 42.878C268.788 42.261 269.276 41.8314 270.029 41.8314C270.489 41.8314 271.054 41.9636 271.752 42.2335V40.6801C271.104 40.4102 270.295 40.1733 269.541 40.1733C268.085 40.1733 267.032 41.1924 267.032 42.5309C267.032 43.0653 267.137 43.55 267.409 44.0072H266.035V45.8856H272.234L272.638 44.0072H269.187C268.915 43.6877 268.783 43.3352 268.783 42.8835L268.788 42.878Z" fill="#FDFDFD"/>
<path d="M288.176 21.4059L290.408 23.5763L292.785 21.2186L290.386 18.8831L288.176 21.0314L285.96 18.8831L283.589 21.2186L285.988 23.5763L288.176 21.4059Z" fill="#FDFDFD"/>
<path d="M305.697 38.8843H307.83C311.79 38.8843 313.762 36.9784 313.762 33.5742V25.4767L310.849 25.8788V32.6597C310.849 34.7805 309.824 35.7941 307.857 35.7941H305.703C304.489 35.7941 303.465 35.447 302.495 34.8025C302.578 34.4004 302.601 33.9983 302.601 33.5686V28.286L299.659 28.6881L299.687 32.6542C299.687 34.775 298.634 35.7886 296.668 35.7886H296.646C295.084 35.7886 294.38 35.067 294.38 33.2436L294.352 24.4246L291.439 24.8267V26.4076C290.281 25.978 289.228 25.7631 288.121 25.7631C284.398 25.7631 281.811 28.8975 281.811 32.5716C281.811 36.2458 284.398 39.1157 288.121 39.1157C289.683 39.1157 291.167 38.6585 292.89 37.7771C293.726 38.5263 294.967 38.8788 296.635 38.8788C298.9 38.8788 300.49 38.2619 301.459 37.1381C302.7 38.2619 304.129 38.8788 305.691 38.8788L305.697 38.8843ZM288.121 36.2017C286.016 36.1742 284.564 34.5932 284.564 32.5275C284.564 30.4619 286.049 28.6661 288.259 28.6661C289.444 28.6661 290.469 29.0131 291.466 29.3657V33.5742C291.466 34.2737 291.522 34.8852 291.627 35.425C290.547 35.9318 289.389 36.2292 288.121 36.2017Z" fill="#FDFDFD"/>
<path d="M303.514 24.2208L301.088 21.8852L298.717 24.2208L301.144 26.5784L303.514 24.2208Z" fill="#FDFDFD"/>
<path d="M309.713 42.7733L307.503 40.6305L305.132 42.9606L307.531 45.3182L309.713 43.1479L311.951 45.3182L314.327 42.9606L311.923 40.6305L309.713 42.7733Z" fill="#FDFDFD"/>
<path d="M351.724 25.6144C347.952 25.6144 345.309 28.1593 345.309 32.1034C345.309 33.15 345.658 34.3839 346.306 35.8051H330.99C329.777 35.8051 328.78 35.4581 327.838 34.8411C327.921 34.439 327.943 34.0093 327.943 33.5797L327.916 31.4093C327.916 27.7352 325.406 25.4822 321.927 25.4822H319.606V28.4843H321.279C323.412 28.4843 324.946 29.7953 324.974 31.7288L325.002 33.0674C325.002 34.7805 323.949 35.7996 321.983 35.7996H315.214L315.723 38.8843H321.95C324.188 38.8843 325.805 38.2949 326.774 37.1437C327.988 38.2674 329.417 38.8843 330.979 38.8843H350.394C355.114 38.8843 358 36.2017 358 31.861C358 28.2695 355.302 25.6144 351.718 25.6144H351.724ZM350.538 35.8051H349.298C348.517 34.439 348.168 33.2051 348.168 31.9987C348.168 30.0928 349.68 28.4623 351.619 28.4623C353.557 28.4623 355.07 29.911 355.07 31.9216C355.07 34.3619 353.319 35.8106 350.538 35.8106V35.8051Z" fill="#FDFDFD"/>
<path d="M80.0719 54.3797L78.9031 55.5199C78.5209 55.889 78.4434 56.3903 78.6871 56.8585L79.4349 58.3072C79.7063 58.8305 80.3212 59.2271 81.0413 59.3483H81.0469C81.2131 59.3759 81.3792 59.3814 81.5399 59.3758C81.5953 59.3758 81.6507 59.3703 81.7005 59.3648C81.8058 59.3538 81.911 59.3428 82.0163 59.3153C82.0717 59.3042 82.1215 59.2932 82.1769 59.2767C82.2766 59.2492 82.3708 59.2106 82.465 59.1665C82.5037 59.15 82.548 59.1335 82.5868 59.1059C82.7087 59.0343 82.825 58.9572 82.9247 58.8636L84.0935 57.7233C84.4758 57.3542 84.5533 56.853 84.3096 56.3847L83.5618 54.936C83.2903 54.4072 82.6699 54.0106 81.9443 53.8949C81.8058 53.8729 81.6728 53.8619 81.5343 53.8619C80.9582 53.8619 80.4265 54.0491 80.0886 54.3741" fill="#FDFDFD"/>
<path d="M81.1133 44.6958C81.1133 44.6958 81.0912 44.6958 81.0746 44.6958C80.3489 44.8059 79.7285 45.2025 79.4515 45.7258L78.6926 47.1691C78.4434 47.6373 78.5265 48.1386 78.9031 48.5131L80.0664 49.6589C80.4818 50.0665 81.1909 50.2593 81.9166 50.1547H81.9221C82.6478 50.039 83.2737 49.6479 83.5507 49.1191L84.3096 47.6758C84.4924 47.3233 84.4979 46.9542 84.3262 46.6348C84.2708 46.5301 84.1933 46.4254 84.0991 46.3373L82.9358 45.1915C82.8361 45.0979 82.7253 45.0153 82.5979 44.9492C82.5647 44.9271 82.5259 44.9161 82.4871 44.8941C82.393 44.8445 82.2877 44.8059 82.1824 44.7729C82.1381 44.7619 82.0938 44.7509 82.0495 44.7398C81.9387 44.7123 81.8279 44.6958 81.7061 44.6847C81.6617 44.6847 81.6119 44.6737 81.5676 44.6737C81.5288 44.6737 81.4956 44.6737 81.4568 44.6737C81.3405 44.6737 81.2297 44.6792 81.1133 44.6958Z" fill="#FDFDFD"/>
<path d="M23.0273 44.6352C22.9885 44.6352 22.9497 44.6407 22.9109 44.6462C22.7835 44.6572 22.6617 44.6737 22.5453 44.7013C22.5066 44.7123 22.4678 44.7178 22.429 44.7288C22.3182 44.7619 22.2074 44.8059 22.1077 44.8555C22.0745 44.872 22.0412 44.883 22.008 44.8996C21.8806 44.9712 21.7698 45.0483 21.6701 45.1419L20.5013 46.2822C20.1246 46.6513 20.0415 47.1525 20.2853 47.6208L21.0331 49.0695C21.0996 49.2017 21.1937 49.3229 21.299 49.4386C21.3377 49.4771 21.3931 49.5157 21.4375 49.5542C21.5095 49.6203 21.5815 49.6864 21.6701 49.747C21.7255 49.7801 21.792 49.8076 21.8529 49.8352C21.9415 49.8847 22.0302 49.9343 22.1243 49.9729C22.1797 49.9949 22.2407 50.0004 22.3016 50.017C22.4124 50.05 22.5232 50.0886 22.645 50.1051C23.3762 50.2263 24.0908 50.0335 24.5118 49.6258L25.6806 48.4911C26.0628 48.122 26.1404 47.6208 25.8967 47.1525L25.1488 45.7038C24.8774 45.1805 24.257 44.7784 23.5313 44.6627C23.5203 44.6627 23.5036 44.6627 23.4926 44.6627C23.3707 44.6462 23.2544 44.6352 23.1325 44.6352C23.0993 44.6352 23.066 44.6352 23.0328 44.6352" fill="#FDFDFD"/>
<path d="M22.6672 53.8564H22.6617C21.936 53.972 21.31 54.3631 21.0386 54.8919L20.2797 56.3352C20.036 56.8034 20.1135 57.3047 20.4902 57.6792L21.6535 58.825C21.7477 58.9186 21.864 58.9958 21.9914 59.0674C22.0246 59.0894 22.0689 59.1004 22.1077 59.1225C22.2019 59.1665 22.3016 59.2051 22.4068 59.2381C22.4512 59.2547 22.501 59.2657 22.5509 59.2767C22.6561 59.2987 22.7669 59.3153 22.8777 59.3263C22.9276 59.3263 22.9829 59.3373 23.0328 59.3373C23.1768 59.3373 23.3264 59.3373 23.476 59.3153C23.487 59.3153 23.5036 59.3153 23.5147 59.3153C24.2404 59.2051 24.8608 58.8085 25.1378 58.2852L25.8967 56.842C26.1404 56.3737 26.0628 55.8725 25.6862 55.4979L24.5229 54.3521C24.185 54.0161 23.6477 53.8288 23.066 53.8288C22.9386 53.8288 22.8057 53.8398 22.6783 53.8564" fill="#FDFDFD"/>
<path d="M78.4101 35.9373C78.0778 35.9538 77.7288 36.0419 77.413 36.2017H77.4075C76.7538 36.5322 76.283 37.0996 76.1833 37.678L75.9063 39.2809C75.8177 39.8042 76.0503 40.2559 76.5212 40.4928L77.9836 41.2254C78.5043 41.4843 79.2632 41.4458 79.9002 41.1263C80.5539 40.7958 81.0247 40.2284 81.1244 39.6445L81.3959 38.0415C81.4845 37.5182 81.2518 37.0665 80.781 36.8297L79.3186 36.097C79.1912 36.0364 79.0527 35.9924 78.9031 35.9648C78.8754 35.9648 78.8477 35.9648 78.82 35.9593C78.7092 35.9428 78.5929 35.9318 78.4766 35.9318C78.4544 35.9318 78.4267 35.9318 78.399 35.9318" fill="#FDFDFD"/>
<path d="M37.9559 23.053C37.9116 23.053 37.8618 23.064 37.8174 23.0695C37.751 23.086 37.6845 23.1025 37.6236 23.1301C37.5848 23.1466 37.546 23.1576 37.5072 23.1797C37.4408 23.2127 37.3854 23.2623 37.33 23.3119C37.3023 23.3394 37.269 23.3559 37.2469 23.3835C37.1693 23.4661 37.1029 23.5597 37.0475 23.6699L36.3107 25.1242C36.0448 25.653 36.0836 26.3856 36.416 27.0411C36.7483 27.6911 37.3189 28.1538 37.9005 28.253L39.5125 28.5229C40.0387 28.611 40.493 28.3797 40.7312 27.9114L41.4679 26.4572C41.7338 25.9284 41.695 25.2013 41.3682 24.5513C41.1189 24.061 40.7367 23.6754 40.3157 23.4716C40.1717 23.4055 40.0277 23.3559 39.8836 23.3284L38.2717 23.0585C38.2163 23.0475 38.1553 23.0419 38.1 23.0419C38.0556 23.0419 38.0058 23.042 37.9615 23.0475" fill="#FDFDFD"/>
<path d="M47.4117 78.2534L45.9548 78.997C45.4286 79.2669 45.0297 79.8784 44.9079 80.6C44.7915 81.3216 44.9743 82.0322 45.3898 82.4564L46.5364 83.6186C46.6195 83.7068 46.7137 83.7729 46.8134 83.828C46.83 83.8335 46.8411 83.8445 46.8577 83.85C46.9574 83.9051 47.0627 83.9381 47.1679 83.9547C47.1735 83.9547 47.179 83.9547 47.1846 83.9547C47.2787 83.9712 47.3784 83.9657 47.4781 83.9547C47.5003 83.9547 47.528 83.9547 47.5502 83.9436C47.6609 83.9216 47.7717 83.8886 47.8825 83.8335L49.3394 83.0898C49.8656 82.8199 50.27 82.1975 50.3863 81.4758C50.5027 80.7542 50.3143 80.0492 49.8989 79.6305L48.7577 78.4682C48.5306 78.2369 48.2481 78.1157 47.949 78.1157C47.7717 78.1157 47.5834 78.1597 47.4061 78.2534" fill="#FDFDFD"/>
<path d="M31.5745 28.5559L29.957 28.7928C29.4308 28.8699 29.0707 29.228 28.9876 29.7513L28.7384 31.3597C28.7162 31.5085 28.7162 31.6572 28.7384 31.8114C28.7439 31.839 28.755 31.872 28.7605 31.8941C28.7827 32.0208 28.8104 32.1475 28.8602 32.2742C28.8769 32.3127 28.899 32.3458 28.9156 32.3788C28.971 32.4945 29.0264 32.6157 29.0929 32.7258C29.1261 32.7699 29.1649 32.8085 29.1981 32.858C29.2702 32.9572 29.3422 33.0508 29.4308 33.1445C29.9404 33.6513 30.6328 33.9267 31.22 33.8441L32.8375 33.6072C33.3638 33.5301 33.7238 33.172 33.8069 32.6487L34.0562 31.0403C34.1448 30.4564 33.8845 29.7678 33.3638 29.25C33.3582 29.25 33.3527 29.239 33.3472 29.2335C33.2308 29.1178 33.109 29.0186 32.976 28.936C32.9317 28.903 32.8874 28.8864 32.8431 28.8589C32.7489 28.8038 32.6492 28.7487 32.5495 28.7047C32.4996 28.6826 32.4498 28.6661 32.3944 28.6496C32.3002 28.6165 32.2005 28.589 32.1063 28.5725C32.0509 28.5614 31.9955 28.5559 31.9457 28.5559C31.8737 28.5504 31.8017 28.5449 31.7352 28.5449C31.6853 28.5449 31.6355 28.5449 31.5856 28.5559" fill="#FDFDFD"/>
<path d="M29.4142 70.8225C29.3256 70.9106 29.2535 71.0042 29.1815 71.1034C29.1483 71.1475 29.104 71.1915 29.0707 71.2356C29.0043 71.3347 28.9544 71.4449 28.9046 71.5496C28.8824 71.5992 28.8492 71.6432 28.8325 71.6928C28.7827 71.8085 28.7605 71.9297 28.7384 72.0508C28.7328 72.0839 28.7162 72.1225 28.7107 72.1555C28.6885 72.3097 28.6885 72.464 28.7107 72.6072L28.9489 74.2157C29.0264 74.739 29.3865 75.097 29.9127 75.1797L31.5302 75.4275C31.6078 75.4386 31.6798 75.4441 31.7573 75.4441C32.1894 75.4441 32.6547 75.2678 33.0591 74.9703C33.1533 74.8987 33.2474 74.8216 33.3305 74.739C33.8512 74.2267 34.1171 73.5436 34.034 72.9597L33.7958 71.3513C33.7183 70.828 33.3582 70.4699 32.8375 70.3873L31.22 70.1394C31.1425 70.1284 31.0594 70.1229 30.9818 70.1229C30.45 70.1229 29.8684 70.3873 29.4253 70.828" fill="#FDFDFD"/>
<path d="M63.8581 76.0941L63.1214 77.5483C62.8555 78.0716 62.8943 78.8042 63.2211 79.4542C63.5535 80.1097 64.124 80.5725 64.7112 80.6716L66.3232 80.947C66.8439 81.0352 67.3036 80.8038 67.5418 80.3356L68.2786 78.8814C68.55 78.3525 68.5057 77.6199 68.1733 76.9644C67.841 76.3144 67.2704 75.8517 66.6888 75.7525L65.0768 75.4826C65.0048 75.4716 64.9328 75.4661 64.8608 75.4661C64.4287 75.4661 64.0631 75.6919 63.8581 76.0941Z" fill="#FDFDFD"/>
<path d="M73.3637 70.167L71.7462 70.4038C71.22 70.4809 70.8599 70.839 70.7768 71.3623L70.5276 72.9708C70.4389 73.5547 70.7048 74.2377 71.22 74.7555C71.3086 74.8436 71.4083 74.9153 71.508 74.9924C71.5468 75.0254 71.5856 75.064 71.6299 75.0915C71.7518 75.1686 71.8792 75.2292 72.0066 75.2843C72.0343 75.2953 72.062 75.3174 72.0841 75.3229C72.206 75.3725 72.3223 75.3945 72.4442 75.4165C72.483 75.422 72.5162 75.4386 72.555 75.4441C72.7101 75.4661 72.8652 75.4661 73.0092 75.4441L74.6267 75.2072C75.153 75.1301 75.513 74.772 75.5961 74.2487L75.8454 72.6403C75.934 72.0564 75.6681 71.3678 75.153 70.85C74.7098 70.4038 74.1282 70.1394 73.5909 70.1394C73.5133 70.1394 73.4413 70.1394 73.3637 70.1559" fill="#FDFDFD"/>
<path d="M55.8039 78.4682L54.6517 79.625C54.2307 80.0436 54.0423 80.7542 54.1531 81.4758C54.1697 81.564 54.1974 81.6466 54.2196 81.7292C54.2417 81.8174 54.2584 81.9055 54.2861 81.9881C54.3138 82.0653 54.3581 82.1314 54.3968 82.2085C54.4356 82.2856 54.4689 82.3737 54.5132 82.4453C54.5575 82.517 54.6129 82.572 54.6683 82.6326C54.7181 82.6932 54.7624 82.7648 54.8178 82.8199C54.9286 82.9246 55.056 83.0182 55.189 83.0843L56.6403 83.839C56.7511 83.8941 56.8619 83.9326 56.9671 83.9547C56.9948 83.9547 57.017 83.9602 57.0447 83.9657C57.1444 83.9822 57.2386 83.9822 57.3327 83.9657C57.3383 83.9657 57.3493 83.9657 57.3549 83.9657C57.4601 83.9492 57.5709 83.9106 57.6651 83.8665C57.6817 83.861 57.6928 83.85 57.7039 83.8445C57.8036 83.7894 57.8977 83.7233 57.9808 83.6352L59.133 82.4784C59.2383 82.3737 59.3269 82.2525 59.4045 82.1148C59.4377 82.0542 59.4543 81.9826 59.482 81.9165C59.5152 81.8339 59.5596 81.7568 59.5817 81.6686C59.6039 81.5805 59.6094 81.4869 59.6205 81.3932C59.6316 81.3161 59.6537 81.2445 59.6537 81.1619C59.6593 81.0682 59.6427 80.9691 59.6371 80.8699C59.6371 80.7873 59.6371 80.7102 59.6205 80.6275C59.5097 79.9059 59.1109 79.289 58.5846 79.0136L57.1333 78.2589C56.9505 78.1653 56.7677 78.1157 56.5794 78.1157C56.2858 78.1157 56.0088 78.2369 55.7817 78.4682" fill="#FDFDFD"/>
<path d="M39.4903 75.4661L37.8728 75.7305C37.2857 75.8242 36.7151 76.2869 36.3772 76.9369C36.3329 77.025 36.3052 77.1131 36.272 77.2068C36.2443 77.2839 36.2055 77.361 36.1833 77.4381C36.1612 77.5318 36.1501 77.6254 36.139 77.7136C36.1279 77.7907 36.1058 77.8678 36.1002 77.9394C36.0947 78.0386 36.1058 78.1322 36.1168 78.2314C36.1168 78.2919 36.1168 78.3581 36.1279 78.4186C36.1556 78.5729 36.1999 78.7161 36.2664 78.8483L36.9921 80.3081C37.0475 80.4182 37.1195 80.5119 37.197 80.5945C37.2192 80.622 37.2469 80.6386 37.2746 80.6606C37.3355 80.7157 37.3909 80.7597 37.4574 80.7983C37.4906 80.8203 37.5294 80.8314 37.5682 80.8479C37.6346 80.8754 37.7011 80.8975 37.7676 80.914C37.8119 80.925 37.8562 80.9305 37.9005 80.9305C38.0002 80.936 38.1 80.9415 38.2052 80.925L39.8227 80.6661C40.4099 80.5724 40.9804 80.1097 41.3183 79.4542C41.6507 78.8042 41.6895 78.0771 41.4291 77.5483L40.7035 76.0886C40.5041 75.6809 40.1329 75.4496 39.7008 75.4496C39.6288 75.4496 39.5624 75.4551 39.4903 75.4661Z" fill="#FDFDFD"/>
<path d="M47.251 20.0398C47.251 20.0398 47.2289 20.0398 47.2233 20.0398C47.1181 20.0564 47.0128 20.0894 46.9187 20.139C46.902 20.15 46.891 20.1555 46.8744 20.161C46.7746 20.2161 46.6805 20.2822 46.5974 20.3648L45.4452 21.5216C45.0242 21.9403 44.8359 22.6508 44.9466 23.3725C45.063 24.0941 45.4563 24.711 45.9825 24.9809L47.4338 25.7356C47.8991 25.978 48.4088 25.9008 48.7854 25.5263L49.9376 24.3695C50.3586 23.9508 50.547 23.2403 50.4362 22.5186C50.4196 22.414 50.3863 22.3203 50.3586 22.2212C50.3365 22.1496 50.3254 22.0725 50.3032 22.0008C50.2645 21.8962 50.2091 21.8081 50.1592 21.7144C50.1315 21.6593 50.1038 21.5932 50.0706 21.5436C50.0263 21.472 49.9709 21.4225 49.9155 21.3564C49.8656 21.2958 49.8213 21.2242 49.7659 21.1691C49.6551 21.0589 49.5277 20.9708 49.4003 20.9047L47.949 20.15C47.8437 20.0949 47.733 20.0619 47.6222 20.0343C47.5945 20.0288 47.5668 20.0288 47.5391 20.0233C47.4837 20.0178 47.4283 20.0123 47.3784 20.0123C47.3397 20.0123 47.3009 20.0123 47.2621 20.0233" fill="#FDFDFD"/>
<path d="M77.9781 62.8021L76.5101 63.5237C76.0337 63.7606 75.8011 64.2123 75.8842 64.7301L76.15 66.3386C76.2442 66.9169 76.7095 67.4898 77.3576 67.8203C77.6789 67.9856 78.0279 68.0792 78.3658 68.1013C78.532 68.1123 78.6982 68.1013 78.8533 68.0737C79.0084 68.0462 79.1524 68.0021 79.2853 67.936L80.7533 67.2144C81.2297 66.9775 81.4623 66.5258 81.3792 66.0081L81.1133 64.4051C81.0912 64.2564 81.0413 64.1131 80.9749 63.9754C80.9527 63.9314 80.9195 63.8928 80.8973 63.8487C80.8419 63.7551 80.7921 63.6559 80.72 63.5678C80.6702 63.5072 80.6037 63.4521 80.5428 63.3915C80.4818 63.3309 80.4265 63.2648 80.3544 63.2097C80.2824 63.1547 80.1993 63.1106 80.1218 63.0555C80.0498 63.0114 79.9833 62.9564 79.9058 62.9178C79.5402 62.7305 79.1358 62.6369 78.7646 62.6369C78.4766 62.6369 78.2107 62.6919 77.9836 62.8021" fill="#FDFDFD"/>
<path d="M72.699 28.578C72.6381 28.5835 72.5716 28.589 72.5107 28.6C72.4276 28.6165 72.3445 28.6386 72.2614 28.6661C72.1949 28.6826 72.134 28.7047 72.0731 28.7322C71.9789 28.7708 71.8903 28.8203 71.8072 28.8699C71.7518 28.903 71.7019 28.925 71.6521 28.9581C71.5136 29.0517 71.3862 29.1508 71.2643 29.272C70.7436 29.7843 70.4777 30.4674 70.5663 31.0513L70.8045 32.6597C70.8821 33.183 71.2421 33.5411 71.7628 33.6237L73.3804 33.8716C73.9731 33.9653 74.66 33.6898 75.1751 33.1831C75.2582 33.1004 75.3302 33.0013 75.4022 32.9131C75.441 32.8636 75.4853 32.8195 75.5186 32.7699C75.5795 32.6818 75.6183 32.5826 75.6681 32.489C75.6958 32.4339 75.7346 32.3788 75.7568 32.3182C75.7955 32.2301 75.8066 32.1364 75.8288 32.0428C75.8454 31.9767 75.8675 31.9161 75.8786 31.85C75.9008 31.6958 75.9008 31.547 75.8786 31.3983L75.6404 29.7898C75.5629 29.2665 75.2028 28.9085 74.6766 28.8258L73.0591 28.578C73.0037 28.5669 72.9538 28.5669 72.8984 28.5669C72.832 28.5669 72.7655 28.5669 72.7045 28.578" fill="#FDFDFD"/>
<path d="M57.1001 20.0508C57.1001 20.0508 57.0502 20.0508 57.0281 20.0619C56.9173 20.0839 56.8065 20.1169 56.6957 20.172L55.2388 20.9157C54.7071 21.1856 54.3082 21.8025 54.1919 22.5242C54.0756 23.2458 54.2639 23.9508 54.6738 24.3695L55.8205 25.5318C56.1916 25.9064 56.7012 25.989 57.1665 25.7521L58.6234 25.0085C59.1497 24.7386 59.5485 24.1271 59.6704 23.4055C59.7867 22.6839 59.6039 21.9733 59.1829 21.5492L58.0362 20.3869C57.9531 20.2987 57.859 20.2326 57.7593 20.1775C57.7482 20.172 57.7316 20.161 57.7205 20.1555C57.6208 20.1059 57.5155 20.0674 57.4047 20.0508H57.3937C57.3493 20.0453 57.2995 20.0398 57.2552 20.0398C57.1998 20.0398 57.1444 20.0398 57.0945 20.0508" fill="#FDFDFD"/>
<path d="M66.3786 23.086L64.7611 23.3449C64.1739 23.4386 63.5978 23.9013 63.2654 24.5568C62.9331 25.2068 62.8887 25.9339 63.1491 26.4627L63.8748 27.9225C64.1129 28.3962 64.5672 28.6331 65.0879 28.5449L66.7054 28.286C67.2926 28.1924 67.8631 27.7297 68.201 27.0797C68.2453 26.9915 68.273 26.8979 68.3118 26.8042C68.3395 26.7326 68.3783 26.6555 68.3949 26.5839C68.4281 26.4792 68.4337 26.3746 68.4503 26.2699C68.4614 26.2093 68.478 26.1432 68.4835 26.0826C68.4891 25.9669 68.478 25.8623 68.4669 25.7576C68.4614 25.7025 68.4669 25.653 68.4558 25.6034C68.4281 25.4492 68.3838 25.3059 68.3173 25.1737L67.5917 23.714C67.5363 23.6038 67.4643 23.5102 67.3867 23.4275C67.3646 23.4 67.3369 23.3835 67.3092 23.3614C67.2482 23.3064 67.1928 23.2623 67.1208 23.2237C67.0876 23.2017 67.0544 23.1907 67.0156 23.1797C66.9491 23.1521 66.8826 23.1301 66.8106 23.1136C66.7663 23.1025 66.7275 23.097 66.6832 23.097C66.6334 23.097 66.5835 23.0915 66.5392 23.0915C66.4838 23.0915 66.434 23.0915 66.3786 23.1025" fill="#FDFDFD"/>
<path d="M25.8025 35.9263C25.7693 35.9263 25.7416 35.9263 25.7139 35.9373C25.5643 35.9648 25.4258 36.0089 25.304 36.0695L23.836 36.7911C23.3596 37.028 23.127 37.4742 23.2101 37.9975L23.476 39.6059C23.4981 39.7547 23.548 39.8979 23.6144 40.0356C23.6311 40.0631 23.6532 40.0907 23.6698 40.1182C23.7308 40.2284 23.7917 40.3386 23.8748 40.4432C23.9025 40.4818 23.9468 40.5093 23.9745 40.5424C24.0576 40.6305 24.1407 40.7186 24.2348 40.7958C24.2736 40.8288 24.329 40.8564 24.3733 40.8894C24.473 40.961 24.5728 41.0326 24.6835 41.0877C25.3261 41.4127 26.085 41.4623 26.6057 41.2034L28.0736 40.4818C28.55 40.2449 28.7827 39.7987 28.6996 39.2754L28.4337 37.667C28.3395 37.083 27.8742 36.5157 27.2206 36.1797C27.215 36.1797 27.2095 36.1797 27.204 36.1742C27.0544 36.097 26.8938 36.0364 26.7331 35.9924C26.7276 35.9924 26.722 35.9924 26.7165 35.9869C26.5503 35.9428 26.3841 35.9153 26.2235 35.9042H26.2124C26.1847 35.9042 26.1515 35.9042 26.1238 35.9042C26.013 35.9042 25.9077 35.9153 25.808 35.9263" fill="#FDFDFD"/>
<path d="M24.6891 62.8682C24.0299 63.1987 23.5646 63.7661 23.4593 64.35L23.1879 65.9585C23.0993 66.4763 23.3319 66.9335 23.8028 67.1703L25.2652 67.903C25.3981 67.9691 25.5421 68.0186 25.6972 68.0462C25.7194 68.0462 25.7416 68.0462 25.7637 68.0462C25.9022 68.0682 26.0407 68.0792 26.1847 68.0682C26.2456 68.0682 26.301 68.0517 26.362 68.0407C26.4728 68.0242 26.5836 68.0186 26.6943 67.9856C26.7664 67.9691 26.8328 67.9305 26.9104 67.9085C27.0045 67.8754 27.1043 67.8479 27.1929 67.7983C27.8465 67.4678 28.3174 66.9004 28.4171 66.322L28.6885 64.7191C28.7772 64.1958 28.55 63.7441 28.0736 63.5072L26.6112 62.7746C26.3841 62.6589 26.1072 62.6038 25.8191 62.6038C25.448 62.6038 25.0547 62.692 24.6946 62.8737" fill="#FDFDFD"/>
<path d="M95.5324 63.0059C95.4715 63.05 95.4105 63.0996 95.344 63.1437C94.1586 63.9809 92.7793 64.4106 91.3169 64.4106C91.0676 64.4106 90.8184 64.3941 90.5636 64.3665C92.026 65.2038 93.1283 66.4928 93.6767 68.0352C93.7432 68.2169 93.7986 68.4042 93.8484 68.5915C94.3525 69.9687 95.4715 71.0483 96.9117 71.511C98.0861 71.8856 99.1385 71.7424 100.053 71.0703C100.906 70.4479 101.587 69.4068 102.025 68.0572C102.374 66.9775 103.265 63.3695 99.914 62.2898C99.4266 62.1356 98.928 62.0585 98.4295 62.0585C97.4047 62.0585 96.3855 62.378 95.5379 62.9949" fill="#FDFDFD"/>
<path d="M96.8951 32.5C95.4604 32.9682 94.3359 34.0479 93.8263 35.4746C93.8263 35.4746 93.8263 35.4746 93.8263 35.4801C93.793 35.6068 93.7432 35.7775 93.6822 35.9483C93.1172 37.5237 92.0204 38.8072 90.558 39.6445C92.2254 39.4682 93.8872 39.8648 95.2277 40.7792C95.3994 40.9004 95.5656 41.0216 95.7263 41.1593C96.9394 41.9691 98.4849 42.1839 99.914 41.7157C101.083 41.3356 101.853 40.603 102.196 39.5288C102.518 38.5263 102.451 37.2869 102.013 35.9373C101.57 34.5932 100.889 33.5521 100.036 32.9297C99.4543 32.5055 98.8173 32.2962 98.1248 32.2962C97.7315 32.2962 97.3216 32.3623 96.8951 32.5055" fill="#FDFDFD"/>
<path d="M88.6358 19.7479C87.4449 20.6072 86.7192 21.9403 86.6417 23.4055C86.6417 23.4165 86.6417 23.422 86.6417 23.4275C86.6583 23.6644 86.6638 23.8847 86.6583 24.0941V24.1381C86.5918 25.7411 85.9492 27.267 84.8414 28.4843C86.337 27.8233 88.032 27.6801 89.5609 28.1042L89.6218 28.1263C89.6606 28.1428 89.6994 28.1483 89.7326 28.1648C89.8988 28.2199 90.0595 28.2695 90.2423 28.3411C91.677 28.7212 93.1781 28.4458 94.3747 27.5809C97.2219 25.5208 95.2443 22.3589 94.5741 21.439C94.0755 20.7559 92.6076 19.0153 90.7187 19.0153C90.065 19.0153 89.367 19.2246 88.6358 19.7534" fill="#FDFDFD"/>
<path d="M76.8425 10.1686C75.9617 11.375 75.6958 12.8843 76.1002 14.3275V14.3331C76.1667 14.4873 76.2387 14.6911 76.2996 14.9004C76.7483 16.4869 76.6098 18.1394 75.9396 19.6322C77.1527 18.5415 78.6705 17.9025 80.2658 17.8254H80.3378C80.5816 17.8199 80.8308 17.8199 81.1023 17.842C82.5591 17.7483 83.883 17.0267 84.7416 15.8479C85.4673 14.8564 85.6501 13.8097 85.2956 12.7411C84.9632 11.7386 84.1766 10.7746 83.0244 9.9428C82.465 9.54068 81.0801 8.66483 79.6177 8.66483C78.6594 8.66483 77.6734 9.03941 76.8536 10.1576" fill="#FDFDFD"/>
<path d="M12.8015 19.1915C11.7989 19.522 10.8295 20.3042 9.99307 21.45C9.15662 22.5958 8.71347 23.7581 8.71347 24.8102C8.71347 25.9339 9.21201 26.8703 10.2091 27.5864C11.4333 28.4678 12.9677 28.7322 14.4246 28.3136C14.4246 28.3136 14.4301 28.3136 14.4357 28.3136C14.5631 28.2585 14.7348 28.2034 14.912 28.1483C16.5572 27.6691 18.2301 27.8178 19.7424 28.4898C18.6179 27.2559 17.9698 25.7081 17.9199 24.0831C17.9144 23.8627 17.9199 23.6534 17.9366 23.4386C17.8756 21.9898 17.15 20.6237 15.9313 19.7479C15.261 19.2686 14.5686 19.0208 13.8596 19.0208C13.5161 19.0208 13.1616 19.0814 12.8126 19.197" fill="#FDFDFD"/>
<path d="M90.1592 75.6975C90.1592 75.6975 90.1536 75.6975 90.1481 75.6975C90.0262 75.747 89.849 75.8076 89.6717 75.8572C89.0181 76.0445 88.3755 76.1381 87.7274 76.1381C86.7414 76.1381 85.7554 75.9123 84.8358 75.5047C85.9603 76.7441 86.614 78.2975 86.6638 79.928C86.6694 80.1428 86.6638 80.3576 86.6472 80.5725C86.7026 82.0212 87.4338 83.3873 88.6525 84.2631C89.6496 84.9792 90.702 85.1665 91.7767 84.8085C92.7793 84.478 93.7542 83.6958 94.5852 82.55C95.2554 81.6301 97.2219 78.4682 94.3691 76.4136C93.5271 75.8076 92.5356 75.4936 91.5274 75.4936C91.0676 75.4936 90.6079 75.5597 90.1536 75.6864" fill="#FDFDFD"/>
<path d="M76.2498 89.2814C76.2221 89.3695 76.1944 89.4576 76.1611 89.5458C75.6903 91 75.9451 92.6195 76.8591 93.8699C78.9308 96.7013 82.1104 94.7347 83.0355 94.0627C83.9606 93.3962 86.8134 90.989 84.7361 88.1631C83.8387 86.9402 82.4483 86.2186 80.925 86.1801C80.853 86.1856 80.7644 86.1856 80.6702 86.1856H80.4874C78.8145 86.1581 77.2192 85.5191 75.9506 84.3733C76.6597 85.9487 76.776 87.6784 76.2608 89.2869" fill="#FDFDFD"/>
<path d="M2.56474 35.9538C2.12713 37.2979 2.06619 38.5428 2.38748 39.5453C2.73092 40.614 3.5009 41.3521 4.67525 41.7267C6.10441 42.1894 7.64436 41.9691 8.89627 41.1318C8.89627 41.1318 8.89627 41.1318 8.90181 41.1318C9.01813 41.0326 9.18432 40.9059 9.36158 40.7903C10.7464 39.8648 12.3805 39.4792 14.0257 39.6555C12.5467 38.8127 11.4388 37.5072 10.896 35.9373C10.8461 35.7941 10.8018 35.6508 10.763 35.5076C10.763 35.5076 10.763 35.5076 10.763 35.5021C10.763 35.4856 10.752 35.4746 10.752 35.458C10.2534 34.0699 9.12892 32.9792 7.6776 32.511C7.23445 32.3678 6.82453 32.3072 6.44786 32.3072C3.97729 32.3072 2.87495 35.0229 2.57028 35.9593" fill="#FDFDFD"/>
<path d="M10.1925 76.4301C7.34524 78.4903 9.3228 81.6466 9.9986 82.5665C10.6689 83.4864 13.0896 86.3233 15.9313 84.2631C17.161 83.3763 17.8867 81.9992 17.931 80.4788C17.9199 80.3576 17.9199 80.1924 17.9255 80.0216C17.9643 78.3415 18.6124 76.7661 19.7479 75.5157C18.8284 75.9233 17.8424 76.1547 16.8508 76.1547C16.2083 76.1547 15.5768 76.0665 14.9674 75.8903C14.7514 75.8297 14.5409 75.758 14.3359 75.6699C13.915 75.5542 13.4829 75.4936 13.0564 75.4936C12.0482 75.4936 11.04 75.8131 10.1925 76.4301Z" fill="#FDFDFD"/>
<path d="M4.66417 62.3119C1.31838 63.397 2.21576 67.0051 2.57028 68.0903C3.00789 69.4343 3.69478 70.4754 4.54784 71.0979C5.46184 71.7644 6.51433 71.9076 7.68868 71.5275C9.11784 71.0648 10.2368 69.9907 10.752 68.575C10.7852 68.4263 10.8461 68.228 10.9181 68.0297C11.4887 66.4708 12.58 65.2038 14.0202 64.3775C13.7654 64.4051 13.5106 64.4216 13.2613 64.4216C11.7934 64.4216 10.403 63.9809 9.23971 63.1547C9.20093 63.1271 9.17324 63.1051 9.14 63.0831C9.09569 63.05 9.05137 63.017 9.00705 62.9839C8.17615 62.389 7.17351 62.075 6.16535 62.075C5.66126 62.075 5.15164 62.1521 4.66417 62.3119Z" fill="#FDFDFD"/>
<path d="M24.0244 86.1856H23.7917C22.2351 86.1856 20.7617 86.9292 19.8477 88.1852C17.7815 91.022 20.6398 93.4127 21.5649 94.0847C22.7171 94.9165 23.8859 95.3572 24.9439 95.3627H24.9605C26.085 95.3627 27.0212 94.8614 27.7357 93.8754C28.6387 92.636 28.8935 91.0826 28.4393 89.6119C28.406 89.5182 28.3617 89.386 28.3174 89.2538C27.8188 87.6343 27.9352 85.9267 28.6387 84.3788C27.3425 85.5411 25.7194 86.1856 24.0133 86.1911" fill="#FDFDFD"/>
<path d="M36.0781 93.1814C35.9894 93.2144 35.8953 93.2419 35.8011 93.2695C35.8011 93.2695 35.79 93.2695 35.7845 93.275C35.7845 93.275 35.7623 93.2805 35.7513 93.286C34.2944 93.7763 33.1699 94.9055 32.6935 96.3763C31.6133 99.7034 35.0754 101.108 36.1612 101.455C37.2469 101.808 40.8807 102.689 41.9664 99.3564C42.4151 97.9682 42.2213 96.4699 41.4236 95.2415C41.3682 95.1754 41.3183 95.1148 41.2685 95.0487C41.2352 95.0102 41.202 94.9716 41.1743 94.9331C41.0968 94.8284 41.0192 94.7237 40.9472 94.6191C40.0609 93.2915 39.6842 91.6775 39.8559 90.0525C38.9973 91.5343 37.6734 92.6415 36.0725 93.1758" fill="#FDFDFD"/>
<path d="M36.1279 2.56144C34.7763 3.00212 33.7294 3.67966 33.1034 4.52797C32.4331 5.43687 32.2891 6.48898 32.6713 7.65127C33.1422 9.08348 34.2279 10.1962 35.6626 10.703C35.8288 10.7636 35.9617 10.8021 36.0947 10.8352C37.7011 11.3915 39.0029 12.4877 39.8504 13.953C39.6731 12.2949 40.0664 10.6534 40.9915 9.30932C41.1134 9.13305 41.2352 8.9678 41.3737 8.80805C42.188 7.6017 42.4041 6.06483 41.9387 4.64364C41.5565 3.48136 40.8143 2.71568 39.7396 2.37415C39.3186 2.24195 38.8533 2.17585 38.3548 2.17585C37.6679 2.17585 36.9145 2.30254 36.1279 2.56144Z" fill="#FDFDFD"/>
<path d="M49.7105 96.1229C49.7105 96.1229 49.705 96.1229 49.6994 96.1284C49.5776 96.222 49.4502 96.3102 49.3228 96.3928C49.3228 96.3928 49.3228 96.3928 49.3172 96.3928C49.3006 96.4038 49.2895 96.4093 49.2785 96.4203C48.1096 97.3237 47.4117 98.7229 47.4172 100.232C47.4172 101.455 47.8881 102.408 48.8021 103.064C49.6607 103.675 50.8627 104 52.2808 104H52.2919C53.4385 104 57.1666 103.725 57.161 100.221C57.161 98.6127 56.3578 97.1144 55.0173 96.211C55.0173 96.211 55.0173 96.2055 55.0117 96.2C55.0117 96.2 55.0117 96.2 55.0062 96.2L54.9896 96.189C53.6158 95.1919 52.663 93.6881 52.303 92.008C51.954 93.6661 51.0511 95.1148 49.7216 96.1174" fill="#FDFDFD"/>
<path d="M3.78895 47.1691C0.265891 47.1691 0 50.8818 0 52.0165C0 53.1513 0.282509 56.8585 3.79448 56.8585C5.31782 56.8585 6.73036 56.1589 7.66098 54.947C7.72192 54.8534 7.81055 54.7267 7.90472 54.6055C8.9295 53.2614 10.3808 52.3581 12.0537 52.011C10.3531 51.6585 8.87411 50.7331 7.86594 49.3614L7.75515 49.2072C7.75515 49.2072 7.74407 49.1907 7.73853 49.1797C6.83007 47.9237 5.35105 47.1691 3.79448 47.1691H3.78895Z" fill="#FDFDFD"/>
<path d="M63.5867 94.7017C63.4704 94.8725 63.343 95.0377 63.21 95.1975C62.3957 96.4038 62.1742 97.9407 62.645 99.3619C63.0272 100.53 63.7695 101.29 64.8441 101.631C65.8523 101.951 67.0987 101.885 68.4558 101.45C69.5415 101.097 73.0037 99.6869 71.9124 96.3597C71.4416 94.9331 70.3558 93.8203 68.9267 93.3081C68.9267 93.3081 68.9211 93.3081 68.9156 93.3081C68.7882 93.275 68.6165 93.2254 68.4503 93.1648C66.8605 92.603 65.5698 91.5123 64.7334 90.058C64.9106 91.7161 64.5173 93.3576 63.5922 94.7017" fill="#FDFDFD"/>
<path d="M100.778 47.1525C99.2549 47.1525 97.8423 47.8521 96.9117 49.0695C96.8563 49.1576 96.7677 49.2788 96.679 49.4C96.679 49.4 96.679 49.4055 96.6735 49.411C95.6543 50.7606 94.1918 51.6585 92.53 52.011C94.2306 52.3636 95.7097 53.289 96.7178 54.6606C96.7344 54.6826 96.74 54.6936 96.7511 54.7102C96.7843 54.7542 96.8175 54.7983 96.8452 54.8424C97.7537 56.0983 99.2438 56.8364 100.795 56.853C102.025 56.853 102.988 56.3848 103.648 55.4703C104.262 54.611 104.589 53.4102 104.584 52C104.584 50.8653 104.307 47.1636 100.789 47.1636L100.778 47.1525Z" fill="#FDFDFD"/>
<path d="M64.822 2.37966C63.7473 2.72119 63.0051 3.48687 62.6284 4.65466C62.1631 6.07585 62.3847 7.6072 63.2266 8.85212C63.2266 8.85212 63.2266 8.85212 63.2266 8.85763C63.3264 8.97331 63.4538 9.13856 63.5756 9.30932C64.5062 10.6864 64.894 12.3059 64.7223 13.9475C65.5698 12.4767 66.8826 11.375 68.4614 10.8352C68.6054 10.7856 68.7494 10.7415 68.8934 10.703C68.8934 10.703 68.9211 10.692 68.9378 10.692C70.3337 10.1907 71.4305 9.07797 71.9013 7.63475C72.278 6.47246 72.134 5.42034 71.4582 4.51144C70.8322 3.66314 69.7853 2.98559 68.4281 2.55042C67.6471 2.29703 66.8993 2.17034 66.2179 2.17034C65.7138 2.17034 65.2485 2.23644 64.822 2.37415" fill="#FDFDFD"/>
<path d="M52.2753 0.00550847C51.1341 0.00550847 47.4006 0.280932 47.4061 3.78983C47.4061 5.30466 48.1096 6.70381 49.3283 7.63475C49.4225 7.68983 49.5499 7.78347 49.6717 7.87712C51.0289 8.89619 51.9318 10.3449 52.2863 12.003C52.6464 10.3119 53.577 8.8411 54.9508 7.83856C55.0062 7.8 55.056 7.76144 55.1114 7.72288L55.128 7.71186C55.128 7.71186 55.1336 7.71186 55.1391 7.70085C56.4021 6.79746 57.161 5.3267 57.1555 3.77331C57.1555 2.55042 56.6846 1.59195 55.7706 0.936441C54.912 0.325 53.71 0 52.2919 0H52.2808L52.2753 0.00550847Z" fill="#FDFDFD"/>
<path d="M21.5593 9.9428C20.6342 10.6148 17.7815 13.0165 19.8587 15.8479C20.7506 17.0653 22.1354 17.7924 23.6587 17.8309H23.6643C23.7363 17.8254 23.8194 17.8254 23.9136 17.8254H24.1185C25.808 17.8695 27.3868 18.5085 28.6387 19.6377C27.9573 18.1229 27.8188 16.4483 28.2731 14.8949C28.334 14.6801 28.4115 14.4708 28.4946 14.267C28.8879 12.8733 28.6165 11.353 27.7302 10.1411C26.9104 9.02839 25.9244 8.65382 24.9716 8.65382C23.5036 8.65382 22.1133 9.53517 21.5538 9.9428" fill="#FDFDFD"/>
<path d="M87.0017 65.2259C85.2513 65.2259 83.7113 66.1182 82.9746 67.5559C82.4428 68.597 82.3819 69.8089 82.8084 70.9712C83.246 72.161 84.1489 73.147 85.3399 73.7475C86.0877 74.122 86.9131 74.3259 87.7274 74.3259C88.2038 74.3259 88.6746 74.2598 89.1178 74.1275C89.2673 74.067 89.439 74.0119 89.6052 73.9623C90.353 73.6483 90.8405 72.789 91.3502 71.792C91.8764 70.7619 92.2641 69.9081 92.0703 69.0873C92.0149 68.9331 91.9595 68.7513 91.9152 68.575C91.4831 67.3962 90.5912 66.4157 89.3892 65.8098C88.6414 65.4297 87.8105 65.2314 86.9962 65.2314L87.0017 65.2259Z" fill="#FDFDFD"/>
<path d="M91.3224 41.4127C91.0344 41.4127 90.7464 41.4347 90.4694 41.4788C89.151 41.6881 87.9933 42.3547 87.2067 43.3517C86.4422 44.3212 86.1265 45.4945 86.3093 46.6458C86.6527 48.7886 88.6358 50.3364 91.0233 50.3364C91.3114 50.3364 91.5994 50.3144 91.8819 50.2703C93.156 50.072 94.2694 49.4441 95.056 48.5076V48.4525L95.2277 48.2818C95.2831 48.1936 95.3551 48.1 95.4438 47.9843C95.8869 47.2682 95.7706 46.2491 95.5933 45.175C95.4105 44.0403 95.2222 43.1203 94.5852 42.575C94.4411 42.4758 94.2749 42.3547 94.1198 42.228C93.3277 41.7047 92.3362 41.4182 91.328 41.4182L91.3224 41.4127Z" fill="#FDFDFD"/>
<path d="M69.4917 91.5729C69.608 91.6004 69.7576 91.6114 69.9127 91.6114C70.6328 91.6114 71.4028 91.2479 72.2005 90.8403C73.5631 90.1517 74.1725 89.6339 74.4384 88.9398C74.4384 88.9343 74.4384 88.9288 74.4439 88.9233C74.4439 88.9123 74.4495 88.9013 74.455 88.8903C74.4772 88.8186 74.4993 88.7525 74.5215 88.692C74.9148 87.447 74.7874 86.0864 74.1559 84.858C73.2862 83.1669 71.58 82.0708 69.8074 82.0708C69.1427 82.0708 68.5112 82.2195 67.924 82.5169C66.8771 83.0513 66.1127 83.9987 65.7748 85.1831C65.4258 86.4059 65.5698 87.728 66.1791 88.9068C66.794 90.1021 67.7966 90.9945 69.0153 91.4242C69.1593 91.4627 69.3255 91.5123 69.4917 91.5674V91.5729Z" fill="#FDFDFD"/>
<path d="M85.3288 30.2636C82.9081 31.4919 81.8556 34.2737 82.9801 36.4606C83.7169 37.8928 85.2568 38.7797 87.0017 38.7797C87.8215 38.7797 88.6525 38.5758 89.4058 38.1958C90.6079 37.5843 91.5052 36.5873 91.9373 35.3754C91.9816 35.2047 92.0426 35.0284 92.0869 34.8962C92.2752 34.0975 91.8653 33.2051 91.3502 32.208C90.8128 31.1669 90.3752 30.4013 89.6385 30.0708C89.428 30.0102 89.2175 29.9386 88.9959 29.8504C88.5915 29.7403 88.165 29.6907 87.7329 29.6907C86.9131 29.6907 86.0822 29.8945 85.3288 30.2746V30.2636Z" fill="#FDFDFD"/>
<path d="M10.342 61.6949C11.3779 62.4275 12.7849 62.736 14.1144 62.5267C15.4327 62.3174 16.5905 61.6508 17.3771 60.6538C18.1415 59.6843 18.4573 58.5165 18.2745 57.3597C17.931 55.2225 15.9479 53.6691 13.5604 53.6691C13.2779 53.6691 12.9899 53.6911 12.7018 53.7352C11.4333 53.939 10.3143 54.5614 9.53329 55.5034V55.5585L9.36157 55.7292C9.30064 55.8174 9.22863 55.9165 9.14554 56.0267C8.70239 56.7373 8.82425 57.7619 8.99597 58.8305C9.23417 60.3343 9.54437 61.067 10.126 61.5352C10.2091 61.5903 10.2756 61.6398 10.342 61.6949Z" fill="#FDFDFD"/>
<path d="M12.652 35.3975C13.0785 36.5983 13.9759 37.5953 15.189 38.2068C15.9368 38.5869 16.7622 38.7852 17.582 38.7852C19.3325 38.7852 20.8724 37.8928 21.6092 36.4551C22.7281 34.2682 21.6646 31.4919 19.2439 30.2691C18.496 29.8945 17.6707 29.6907 16.8564 29.6907C16.3855 29.6907 15.9147 29.7568 15.4715 29.8835C15.322 29.9441 15.1502 29.9992 14.9841 30.0487C14.2307 30.3627 13.7432 31.2165 13.2336 32.2136C12.7295 33.1996 12.3528 34.0314 12.4969 34.8301L12.5578 34.9017V35.0449C12.5966 35.1551 12.6298 35.2708 12.6631 35.3864L12.652 35.3975Z" fill="#FDFDFD"/>
<path d="M15.5712 74.1661C15.9701 74.2708 16.4132 74.3314 16.8564 74.3314C17.6762 74.3314 18.5071 74.1275 19.2549 73.7475C20.4459 73.147 21.3377 72.1555 21.7754 70.9657C22.2019 69.8089 22.141 68.597 21.6036 67.5559C20.8669 66.1292 19.3269 65.2369 17.582 65.2369C16.7622 65.2369 15.9313 65.4407 15.1779 65.8208C13.9925 66.4212 13.1007 67.4072 12.6575 68.6025C12.6187 68.7678 12.5578 68.9606 12.4913 69.1589C12.3196 69.9301 12.724 70.817 13.2392 71.8085C13.7488 72.7945 14.2307 73.6428 14.9951 73.9678C15.1669 74.0174 15.3718 74.089 15.5712 74.1716V74.1661Z" fill="#FDFDFD"/>
<path d="M86.3038 57.3653C86.121 58.5275 86.4478 59.7008 87.2233 60.6703C88.0154 61.6619 89.1676 62.3174 90.4805 62.5212C91.8099 62.725 93.1726 62.4275 94.2306 61.6949L94.2417 61.6839L94.2749 61.6619C94.3137 61.6343 94.358 61.5958 94.4079 61.5627H94.4134C95.0449 61.0725 95.3496 60.3509 95.5933 58.814C95.8371 57.2881 95.7706 56.517 95.344 55.878L95.2665 55.7733C95.2443 55.7458 95.2277 55.7182 95.2111 55.6962C94.4301 54.6386 93.2446 53.939 91.8708 53.7297C91.5883 53.6856 91.3058 53.6636 91.0233 53.6636C88.6303 53.6636 86.6472 55.2225 86.3038 57.3653Z" fill="#FDFDFD"/>
<path d="M9.36712 48.3038C10.1482 49.3614 11.3391 50.0665 12.7129 50.2814C12.9899 50.3254 13.2724 50.3475 13.5604 50.3475C15.9535 50.3475 17.9366 48.7886 18.2745 46.6458C18.4573 45.489 18.136 44.3212 17.3715 43.3517C16.5794 42.3547 15.4217 41.6936 14.1033 41.4843C13.8263 41.4403 13.5383 41.4182 13.2613 41.4182C12.231 41.4182 11.256 41.7102 10.4307 42.261C10.2977 42.3712 10.1371 42.4924 9.95983 42.6136C9.36158 43.1369 9.1677 44.0898 8.99598 45.1915C8.75778 46.7064 8.82425 47.5106 9.25633 48.1441L9.27849 48.1771C9.27849 48.1771 9.2951 48.1992 9.30064 48.2047L9.31726 48.2267C9.31726 48.2267 9.3505 48.2708 9.36158 48.2873L9.37265 48.3038H9.36712Z" fill="#FDFDFD"/>
<path d="M42.886 94.1343C43.4233 94.7072 44.2875 94.8835 45.4452 95.0653C46.8965 95.2911 47.6942 95.247 48.2647 94.9055H48.2758C48.3977 94.8064 48.5306 94.7127 48.6691 94.6246C49.6828 93.8534 50.3531 92.6966 50.5636 91.3636C50.9846 88.6975 49.3449 86.2131 46.9076 85.8331C46.7026 85.8 46.4866 85.7835 46.265 85.7835C44.0493 85.7835 42.0939 87.5903 41.7172 89.9809C41.5178 91.2534 41.7726 92.5203 42.4428 93.5559C42.5259 93.6551 42.5979 93.7432 42.6644 93.8259L42.6977 93.8754C42.7752 93.9746 42.8306 94.0572 42.886 94.1343Z" fill="#FDFDFD"/>
<path d="M30.1897 89.05C30.5165 89.8432 31.4194 90.3555 32.3999 90.8513C33.2973 91.303 34.034 91.6059 34.6988 91.6059C34.8816 91.6059 35.0588 91.5839 35.2361 91.5343C35.3247 91.5068 35.4078 91.4792 35.4854 91.4572L35.5186 91.4462C36.7594 91.0331 37.7842 90.1297 38.4046 88.9068C39.0084 87.7225 39.1469 86.4004 38.7979 85.1775C38.46 83.9932 37.6956 83.0513 36.6431 82.5225C36.0615 82.225 35.43 82.0763 34.7708 82.0763C32.9926 82.0763 31.2865 83.1725 30.4223 84.8691C29.8019 86.0864 29.6745 87.4415 30.0623 88.692C30.1011 88.7966 30.1454 88.9178 30.1842 89.0445L30.1897 89.05Z" fill="#FDFDFD"/>
<path d="M24.0299 84.3623C25.3593 84.3623 26.6445 83.817 27.6305 82.8364C29.5471 80.925 29.6856 77.9559 27.9407 76.2263C27.1541 75.4441 26.0795 75.0144 24.9107 75.0144C23.5923 75.0144 22.2684 75.5763 21.2879 76.5513C20.3351 77.5042 19.7923 78.7381 19.759 80.0271C19.7701 80.1924 19.7701 80.3687 19.7646 80.4953C19.831 81.3161 20.5013 82.0432 21.299 82.8364C22.3958 83.9271 23.0716 84.3292 23.8471 84.3623H24.0299Z" fill="#FDFDFD"/>
<path d="M76.9533 21.1801C76.0171 22.111 75.4742 23.3229 75.4244 24.5843C75.3745 25.8237 75.8066 26.964 76.6431 27.7903C77.4296 28.5725 78.5098 29.0021 79.6731 29.0021C80.9915 29.0021 82.3154 28.4403 83.2903 27.4653C84.2099 26.5453 84.7527 25.361 84.8192 24.1161C84.8026 23.8903 84.797 23.6754 84.8026 23.4661C84.7195 22.6564 84.1157 22.0064 83.2792 21.1691C82.4539 20.3483 81.8058 19.7589 81.0358 19.6708C80.7865 19.6818 80.5372 19.6708 80.3157 19.6542C80.3046 19.6542 80.2935 19.6542 80.2769 19.6542C79.0471 19.7314 77.8672 20.2712 76.9533 21.1801ZM84.8247 24.0665C84.8247 24.0665 84.8247 24.0665 84.8247 24.072V24.0665ZM80.3489 19.6487H80.3378C80.3378 19.6487 80.3434 19.6487 80.3489 19.6487Z" fill="#FDFDFD"/>
<path d="M79.6786 75.0034C78.5098 75.0034 77.4296 75.4386 76.6431 76.2208C75.8066 77.0525 75.3801 78.1928 75.4299 79.4322C75.4853 80.6936 76.0282 81.9 76.9699 82.8364C77.9227 83.7839 79.1635 84.3237 80.4652 84.3568C80.5594 84.3568 80.6647 84.3513 80.7754 84.3513H80.9305C81.7615 84.2907 82.4927 83.6242 83.2903 82.8254C84.1046 82.0102 84.7361 81.3216 84.8137 80.4953C84.8026 80.2805 84.8137 80.0491 84.8247 79.9004C84.7749 78.6665 84.2265 77.4712 83.2848 76.5348C82.3043 75.5653 80.9859 75.0089 79.6731 75.0089L79.6786 75.0034Z" fill="#FDFDFD"/>
<path d="M58.3243 85.7835C58.1027 85.7835 57.8867 85.8 57.6817 85.8331C55.2444 86.2187 53.6103 88.703 54.0368 91.3691C54.2528 92.7242 54.9951 93.947 56.0698 94.7182C56.524 95.0432 57.0502 95.1919 57.7703 95.1919C58.1581 95.1919 58.6013 95.1479 59.1663 95.0598C60.3129 94.878 61.2325 94.6907 61.7809 94.0572C61.875 93.9195 61.9969 93.7598 62.1298 93.6C62.8223 92.5699 63.0882 91.2809 62.8777 89.9699C62.4954 87.5848 60.54 85.7835 58.3298 85.7835H58.3243Z" fill="#FDFDFD"/>
<path d="M55.9977 9.33136C54.9397 10.1081 54.2362 11.2869 54.0202 12.653C53.8152 13.964 54.0922 15.264 54.8012 16.3161C55.4936 17.3352 56.5129 18.0017 57.6762 18.1835C57.8867 18.2165 58.1027 18.2331 58.3132 18.2331C60.529 18.2331 62.4844 16.4263 62.861 14.0356C63.066 12.7246 62.789 11.4246 62.08 10.3725C61.9692 10.2458 61.8473 10.086 61.731 9.91525C61.2048 9.31483 60.2409 9.12203 59.133 8.95127C58.7287 8.88517 58.1969 8.81356 57.6983 8.81356C57.0502 8.81356 56.5794 8.93475 56.175 9.20466C56.0919 9.26525 56.042 9.30381 55.9922 9.33136H55.9977Z" fill="#FDFDFD"/>
<path d="M68.9932 12.5869C67.7856 13.011 66.7829 13.9034 66.1681 15.1097C65.5643 16.2831 65.4258 17.5996 65.7692 18.817C66.1071 20.0123 66.8716 20.9597 67.924 21.4941C68.5057 21.786 69.1372 21.9347 69.7964 21.9347C71.5745 21.9347 73.2806 20.8386 74.1448 19.1419C74.743 17.9686 74.8871 16.6631 74.5492 15.4513C74.4771 15.286 74.4107 15.0822 74.3442 14.8674C74.0285 14.1403 73.1754 13.6665 72.1783 13.1597C71.4139 12.7742 70.6051 12.3941 69.8961 12.3941C69.8407 12.3941 69.7853 12.3941 69.7299 12.3996L69.6911 12.4822H69.3311C69.2203 12.5208 69.1039 12.5538 68.9876 12.5869H68.9932Z" fill="#FDFDFD"/>
<path d="M19.7479 24.1161C19.7978 25.35 20.3462 26.5453 21.2879 27.4818C22.2684 28.4513 23.5812 29.0076 24.8996 29.0076C26.0684 29.0076 27.1486 28.5725 27.9352 27.7903C28.7661 26.964 29.1981 25.8292 29.1538 24.5953C29.104 23.3284 28.5556 22.1165 27.6139 21.1801C26.6556 20.2271 25.4147 19.6873 24.1185 19.6597C24.0631 19.6597 23.969 19.6653 23.8194 19.6653H23.6532C22.8168 19.7258 22.0856 20.3924 21.2879 21.1911C20.4736 22.0064 19.8421 22.6949 19.7646 23.5267C19.7701 23.703 19.7646 23.9068 19.7535 24.1216L19.7479 24.1161Z" fill="#FDFDFD"/>
<path d="M42.4595 10.4165C41.7781 11.4356 41.5011 12.7521 41.7116 14.0466C42.0939 16.4318 44.0493 18.2331 46.2595 18.2331C46.47 18.2331 46.6916 18.2165 46.9131 18.1835C48.0709 18.0017 49.0901 17.3352 49.7825 16.3106C50.4916 15.2585 50.763 13.9585 50.5525 12.642C50.342 11.3254 49.6662 10.1797 48.658 9.39746L48.4752 9.32585L48.4309 9.24322C48.3644 9.19915 48.3035 9.14958 48.2481 9.11102C47.9102 8.90721 47.4781 8.80254 46.9242 8.80254C46.4478 8.80254 45.9216 8.87415 45.423 8.95678C44.2819 9.13856 43.3624 9.32585 42.8084 9.95932C42.7143 10.097 42.5924 10.2568 42.4539 10.422L42.4595 10.4165Z" fill="#FDFDFD"/>
<path d="M30.0069 15.4898C29.6801 16.6576 29.8352 17.9907 30.4334 19.153C31.3031 20.8441 33.0092 21.9403 34.7819 21.9403C35.4466 21.9403 36.0781 21.7915 36.6652 21.4941C37.7177 20.9597 38.4822 20.0068 38.8145 18.8114C39.158 17.5941 39.0084 16.2775 38.4102 15.1042C37.7953 13.9089 36.7927 13.0165 35.574 12.5869C35.4023 12.5428 35.225 12.4877 35.0921 12.4381C34.9757 12.4106 34.8262 12.3941 34.6766 12.3941C33.962 12.3941 33.1865 12.7576 32.3888 13.1653C31.3973 13.6665 30.5498 14.1458 30.2174 14.9059C30.1675 15.0822 30.0955 15.286 30.0124 15.4898H30.0069Z" fill="#FDFDFD"/>
</svg>
